<?xml version="1.0" encoding="utf-8"?>
<!-- Generator: Adobe Illustrator 28.0.0, SVG Export Plug-In . SVG Version: 6.00 Build 0)  -->
<svg version="1.1" id="レイヤー_1" xmlns="http://www.w3.org/2000/svg" xmlns:xlink="http://www.w3.org/1999/xlink" x="0px"
	 y="0px" viewBox="0 0 25 375" style="enable-background:new 0 0 25 375;" xml:space="preserve">
<g>
	<path d="M15.4,19.7c-2.6,0-4.6-1.6-5.1-4.9c-0.1-0.8-0.2-1.7-0.1-2.5c0-2.8,0.7-5.6,0.7-8.4c0-1.4-0.2-2.4-0.7-2.9
		C9.9,0.8,9.8,0.6,9.8,0.6c0-0.1,0.1-0.1,0.3-0.1c0.2,0,2.4,0.1,2.4,2.6c0,0.3,0,0.5-0.1,0.8c-0.3,1.6-1.2,5.8-1.3,9
		c0,1.2,0,5.4,4.5,5.5c2.2,0,5-1.1,7.5-3.3c0.2-0.1,0.3-0.2,0.3-0.2c0.1,0,0.1,0,0.1,0.1C23.5,15.3,19.7,19.7,15.4,19.7z"/>
	<path d="M7.6,34.1c-0.6,0-1.9-0.3-1.9-1.9c0-0.5,0.1-0.7,0.2-0.7c0.1,0,0.2,0.2,0.4,0.4c0.4,0.5,1,0.7,1.6,0.7
		c1.2,0,2.3-0.3,3.4-0.7c0.3-1,0.6-2.1,0.6-2.9c0-0.8-0.2-1.3-0.8-1.4c-0.2-0.1-0.5-0.2-0.5-0.4c0-0.3,0.8-0.7,1.4-0.7
		c1,0,1.2,1.1,1.2,1.6c0,0.7-0.4,2.3-0.8,3.2c0,0.1-0.1,0.2-0.1,0.3c0.6-0.2,1.1-0.4,1.7-0.4c2.4,0,2.4,3.1,2.4,4.1
		c-0.1,5.2-3.1,7.8-5.5,7.7c-0.4,0-0.8-0.1-1.1-0.2C8.9,42.6,9.2,41.7,9,41c-0.1-0.4-0.1-0.6-0.1-0.8c0-0.1,0-0.1,0.1-0.1
		c0.1,0,0.3,0.2,0.6,0.7c0.4,0.7,1.1,1.1,1.8,1.1c2.2,0,3.9-3.5,3.9-6.9c0-2-0.5-3-1.5-3c-0.5,0-0.7,0.1-2,0.8
		c-1.2,2.6-3.2,6.6-4.9,9.5c-0.4,0.6-1,1.2-1.5,1.2C5.2,43.5,5,43.3,5,43c0-0.4,0.3-0.9,0.6-1.4c1-1.5,3.8-5.4,5.2-8.5
		C8.7,34,8.1,34.1,7.6,34.1z M22.9,38.1C22.7,38,22.4,38,21.9,38c-1.8,0-2.2,0-2.1-0.2c0-0.1,0.3-0.1,0.6-0.2c1.1-0.2,3-0.4,3-2
		c0-2.1-2.1-2.8-3.4-3.3c-0.5-0.2-0.7-0.3-0.7-0.4c0-0.1,0.1-0.1,0.3-0.1c3.2,0,5.3,2.1,5.2,4c0,1.4-0.9,2.2-1.6,2.2
		C23.1,38.2,23,38.2,22.9,38.1z"/>
	<path d="M14.6,69.4c-2.6,0-4.6-1.6-5.1-4.9c-0.1-0.8-0.2-1.7-0.1-2.5c0-2.8,0.7-5.6,0.7-8.4c0-1.4-0.2-2.4-0.7-2.9
		c-0.2-0.2-0.3-0.4-0.3-0.5c0-0.1,0.1-0.1,0.3-0.1c0.2,0,2.4,0.1,2.4,2.6c0,0.3,0,0.5-0.1,0.8c-0.3,1.6-1.2,5.8-1.3,9
		c0,1.2,0,5.4,4.5,5.5c2.2,0,5-1.1,7.5-3.3c0.2-0.1,0.3-0.2,0.3-0.2c0.1,0,0.1,0,0.1,0.1C22.8,65.1,19,69.5,14.6,69.4z"/>
	<path d="M13.7,86.5c-0.9,0-1.7-0.8-1.7-1.8c0-0.9,0.8-1.7,1.8-1.7c0.9,0,1.7,0.8,1.7,1.8S14.6,86.5,13.7,86.5z"/>
	<path d="M13.4,103.8c-0.9,0-1.7-0.8-1.7-1.8c0-0.9,0.8-1.7,1.8-1.7c0.9,0,1.7,0.8,1.7,1.8C15.2,103.1,14.4,103.8,13.4,103.8z"/>
	<path d="M13.2,121.1c-0.9,0-1.7-0.8-1.7-1.8s0.8-1.7,1.8-1.7s1.7,0.8,1.7,1.8S14.1,121.1,13.2,121.1z"/>
	<path d="M10.3,147.3c-1.4,3.9-2.8,7.8-3.8,11.7c-0.2,0.7-0.6,1.6-1.3,1.6c-0.7,0-0.7-0.8-0.7-1c0-0.4,0.1-0.8,0.4-1.3
		c0.6-0.8,3.7-8.4,4.5-11.3c-1.1,0.3-1.6,0.3-1.9,0.3c-2.6,0-3.3-1.8-3.3-2.2c0-0.1,0-0.1,0.1-0.1c0.1,0,0.3,0.2,0.5,0.3
		c0.4,0.3,1.5,0.9,2.7,0.9c0.7,0,1.6-0.1,2.1-0.2c0.1-0.5,0.2-1.1,0.2-1.6c0-0.9-0.2-1.7-0.7-1.7c-0.4-0.1-0.6-0.2-0.6-0.3
		c0-0.2,0.6-0.6,1.1-0.6c0.5,0,1.5,0.4,1.6,1.9c0.8,0.3,1.4,0.4,1.8,0.5c0.3,0.1,0.5,0.4,0.5,0.6c0,1.1-2.4,1.9-2.9,2.1L10.3,147.3z
		 M10.8,145.6c0.7-0.3,1.3-0.7,1.3-1c0-0.3-0.7-0.6-1.1-0.8C11.1,144.3,11,145,10.8,145.6z M19.4,159.2c1,0,1.5,0.3,1.5,0.7
		c0,0.3-0.3,0.8-2.1,0.8c-3,0-5.9-1.6-5.9-3.4c0-1,0.7-1.5,0.8-1.5c0.1,0,0.1,0.1,0.1,0.2c0,0.1,0,0.2-0.1,0.4
		c-0.1,0.2-0.1,0.3-0.1,0.5c0,1.1,1.7,2.3,4.1,2.3c0.4,0,0.9-0.1,1.7-0.1L19.4,159.2z M17.6,150.5c-0.1,0.1-0.2,0.1-0.3,0.1
		s-0.1-0.1-0.1-0.1c0-0.1,0-0.1,0.1-0.2c0.6-0.7,0.8-0.9,1.3-1.4c0.2-0.2,0.5-0.6,0.5-0.9c0-0.5-0.9-0.9-2.1-0.9c-0.2,0-0.4,0-0.5,0
		c-0.1,0-0.3,0-0.4,0c-0.2,0-0.3-0.1-0.3-0.1c0,0,0.4-0.6,1.9-0.6c2.1,0,4,1.2,4,1.7c0,0.2-0.3,0.4-0.5,0.5
		C20.1,149,19.2,149.2,17.6,150.5z"/>
	<path d="M14.1,178.9c-2.1,0-5.5,2-5.5,4.3c0,1.2,0.8,3,4,3.1c1.1,0,2.4-0.2,3.5-0.7c0.3-0.1,0.5-0.2,0.7-0.2c0.5,0,0.9,0.3,0.9,0.7
		c0,1-2.4,1.6-4.4,1.6c-4.5-0.1-5.6-2.9-5.6-4.3c0-2.1,1.9-4.1,4.6-5.3c-1.3-0.6-1.6-2-1.6-3.5c0-1.3,0.3-2.7,0.5-3.7
		c0.1-0.6,0.1-1.1,0.1-1.5c0-1-0.3-1.4-1.5-1.6c-0.1,0-0.2-0.1-0.2-0.3c0-0.2,0.4-0.6,1-0.6c1,0,2.3,1.2,2.2,2.4
		c0,0.5-0.2,0.9-0.3,1.4c-0.3,1.1-0.8,2.9-0.8,4.2c0,1.5,0.6,2.5,2,2.8c1.1-0.4,1.4-0.4,1.9-0.4c0.9,0,1,0.4,1,0.7
		c0,0.5-0.6,1.1-1.8,1c-0.1,0-0.2,0-0.3,0L14.1,178.9z M17.7,175.7c-0.7-0.8-1.6-1.4-2.2-1.8c-0.1-0.1-0.4-0.2-0.4-0.2
		c0-0.1,0.5-0.1,0.6-0.1c1.1,0,3.3,0.5,3.3,1.8c0,0.4-0.3,0.7-0.6,0.7C18.2,176.1,17.9,176,17.7,175.7z M20.4,174.6
		c-0.7-0.8-1.6-1.3-2.3-1.7c-0.1-0.1-0.4-0.2-0.4-0.2c0-0.1,0.4-0.1,0.7-0.1c2.1,0,3.2,0.8,3.2,1.6c0,0.4-0.3,0.7-0.6,0.7
		C20.8,174.9,20.6,174.8,20.4,174.6z"/>
	<path d="M15.1,203.7c0-3.2-1-6.2-2.7-6.2c-1.5,0-3,2.2-3,5c0,1.5,0.5,2.7,0.7,3.1c0.1,0.2,0.1,0.4,0.1,0.7c0,0.5-0.3,1-0.6,1
		c-0.4,0-1.5-1.4-1.5-4c0-0.7,0.1-1.5,0.3-2.2c0.2-0.8,1-3.6,1-5.4c0-0.8-0.1-1.3-0.5-1.5c-0.1-0.1-0.3-0.2-0.3-0.3
		c0-0.1,0.4-0.3,0.6-0.3c0.3,0,1.2,0.3,1.2,2c0,0.2,0,0.5-0.1,0.9c-0.2,1.1-0.8,3.2-1,3.8c0,0.2-0.1,0.3-0.1,0.3c0,0.1,0,0.1,0,0.1
		c0,0,0.1-0.1,0.2-0.4c0.7-2.4,2-3.6,3.4-3.6c2.6,0,3.7,4.1,3.6,7.2c-0.1,8-7,11.8-8,11.8c-0.1,0-0.1,0-0.1-0.1
		c0-0.1,0.3-0.3,0.9-0.7C12.2,213.1,15.1,208.7,15.1,203.7z"/>
	<path d="M21.8,230.1c0,0.2-0.1,0.3-0.5,0.3l-12.1-0.2c0.1,0,0.1,0.1,0.1,0.2c0,0.1-0.1,0.2-0.4,0.4c-0.2,0.1-0.3,0.2-0.8,1.1
		c0.3,0.1,0.7,0.3,1.1,0.6l6.4,0.1c0.2,0,0.3,0,0.3-0.1c0.1-0.1,0.3-0.4,0.4-0.5c0.1,0,0.1,0,0.2,0c0.4,0,1.8,0.8,1.8,1.2
		c0,0.3-0.4,0.4-0.5,0.5c-0.5,0.3-0.6,0.4-0.6,1.2l0,0.3c0,1.7,0.1,5.2,0.1,6.1l0,0c0,0.4-0.4,0.7-0.8,0.7c-0.3,0-0.5-0.2-0.5-0.5
		l0-0.7l-7.6-0.1c0,0.3,0,0.5,0,0.8c0,0.4-0.4,0.7-0.7,0.7c-0.2,0-0.4-0.2-0.4-0.5l0-0.1c0.1-1.2,0.3-6.2,0.3-8l0-0.7
		c-2.7,4.8-6.8,7.4-7.5,7.4c-0.1,0-0.1,0-0.1-0.1c0-0.1,0.1-0.2,0.4-0.4c2.2-1.6,4.5-4.1,6.6-8.5c0.2-0.3,0.2-0.8,0.3-1.1
		c-1.6,0-3.8,0-5.2,0.2l0,0c-0.5,0-1.2-1-1.2-1.3l0,0c2.5,0.4,7.1,0.5,8.5,0.5l1.1,0c0.1-0.8,0-0.4,0.1-1.9l0-0.4l-0.7,0
		c-1.2,0-3.4,0-5.5,0.2l0,0c-0.4,0-1.1-0.9-1.1-1.2l0,0c2.3,0.3,5.4,0.5,6.7,0.5l0.5,0c0-0.8,0-1.7,0-2.3l-1.7,0
		c-1.3,0-3.6,0-5.7,0.2l0,0c-0.5,0-1.1-1-1.1-1.3l0,0c2.4,0.4,5.6,0.5,6.9,0.5l3.1,0c0.8-1.2,1.8-2.8,2-4.1c0-0.2,0.1-0.2,0.1-0.2
		c0,0,0.1,0.1,0.2,0.1c0,0,2,1.2,2,1.6c0,0.2-0.3,0.3-0.8,0.3c-0.4,0-0.4,0-0.7,0.3c-0.4,0.4-1.6,1.5-2.4,2.1l4,0.1
		c0.2,0,0.3-0.1,0.4-0.2c0.9-1.2,1.2-1.2,1.3-1.2c0.5,0,2.1,1.2,2.1,1.8c0,0.2-0.1,0.3-0.5,0.3l-7.2-0.1c0,0,0,0.1,0,0.1
		c0,0.2-0.2,0.3-0.4,0.4c-0.2,0.1-0.4,0.3-0.4,1.7l3.2,0c0.2,0,0.3-0.1,0.4-0.2c0.8-1,1.1-1,1.2-1c0.3,0,2.1,1.1,2.1,1.6
		c0,0.2-0.1,0.3-0.5,0.3l-6.3-0.1c0,0.9,0,1.8,0,2.3l6.2,0.1c0.2,0,0.4-0.1,0.5-0.2c0.2-0.3,1-1.3,1.3-1.3
		C20.2,228.2,21.8,229.6,21.8,230.1z M9.8,222.2c0,0.5-0.3,0.9-0.7,0.9c-0.3,0-0.6-0.3-0.8-0.8c-0.3-0.7-1-1.6-1.6-2.2
		c-0.1-0.1-0.2-0.2-0.2-0.2c0,0,0.1,0,0.1,0C7.9,219.9,9.8,220.8,9.8,222.2z M16.2,235.7l-7.6-0.1l0,1.8l7.6,0.1L16.2,235.7z
		 M16.2,233.4c0,0,0-0.2-0.2-0.2l-6.9-0.1c-0.3,0.2-0.4,0.2-0.5,1.2l0,0.6l7.6,0.1C16.2,234.3,16.2,233.7,16.2,233.4z M8.6,238
		c0,0.7,0,1.3,0,2.1l7.6,0.1c0-0.6,0-1.4,0.1-2.1L8.6,238z"/>
	<path d="M9.8,261.3c0,0.3-0.1,1-1.2,1c-0.9,0-1.9-0.6-2.5-1.1c-2.3-2-2.7-4.4-2.7-7c0-1,0.1-1.9,0.2-2.9c0-0.2,0-0.5,0-0.7
		c0-0.5,0-0.9-0.1-1.3c0-0.1,0-0.1,0-0.2c0-0.1,0.1-0.2,0.2-0.2c0.1,0,1.4,0.4,1.4,2.1c0,0.3-0.1,0.6-0.1,0.8
		c-0.2,0.8-0.4,2-0.4,3.2c-0.1,4.7,2.7,5.3,3.1,5.3c0.4,0,0.7-0.2,0.8-0.5c0.5-0.9,1.1-2.4,1.6-3.4c0.2-0.5,0.3-0.7,0.4-0.7
		c0.1,0,0,0.1,0,0.2c0,0.2-0.1,0.6-0.1,0.7c-0.1,0.6-0.4,1.7-0.6,3.3l0,0.3C9.7,260.6,9.8,260.9,9.8,261.3L9.8,261.3z M18.8,256.4
		c-0.2-2.3-1.8-4.3-4-4.9c-0.7-0.2-1.1-0.4-1.1-0.5c0-0.1,0.2-0.1,0.5-0.1c3.4,0.1,6.2,2.9,6.1,5.2c0,0.8-0.4,1.2-0.8,1.2
		C19.2,257.3,18.9,257,18.8,256.4z"/>
	<path d="M8.4,274.7c-1.4,3.9-2.8,7.8-3.8,11.7c-0.2,0.7-0.6,1.6-1.3,1.6c-0.7,0-0.7-0.8-0.7-1c0-0.4,0.1-0.8,0.4-1.3
		c0.6-0.8,3.7-8.4,4.5-11.3c-1.1,0.3-1.6,0.3-1.9,0.3c-2.6,0-3.3-1.8-3.3-2.2c0-0.1,0-0.1,0.1-0.1c0.1,0,0.3,0.2,0.5,0.3
		c0.4,0.3,1.5,0.9,2.7,0.9c0.7,0,1.6-0.1,2.1-0.2c0.1-0.5,0.2-1.1,0.2-1.6c0-0.9-0.2-1.7-0.7-1.7c-0.4-0.1-0.6-0.2-0.6-0.3
		c0-0.2,0.6-0.6,1.1-0.6c0.5,0,1.5,0.4,1.6,1.9c0.8,0.3,1.4,0.4,1.8,0.5c0.3,0.1,0.5,0.4,0.5,0.6c0,1.1-2.4,1.9-2.9,2.1L8.4,274.7z
		 M8.9,273c0.7-0.3,1.3-0.7,1.3-1c0-0.2-0.7-0.6-1.1-0.8C9.2,271.7,9.1,272.4,8.9,273z M17.5,286.6c1,0,1.5,0.3,1.5,0.7
		c0,0.2-0.3,0.8-2.1,0.8c-3,0-5.9-1.6-5.9-3.4c0-1,0.7-1.5,0.8-1.5c0.1,0,0.1,0.1,0.1,0.2c0,0.1,0,0.2-0.1,0.4
		c-0.1,0.2-0.1,0.3-0.1,0.5c0,1.1,1.7,2.3,4.1,2.3c0.4,0,0.9-0.1,1.7-0.1L17.5,286.6z M15.7,277.9c-0.1,0.1-0.2,0.1-0.3,0.1
		c-0.1,0-0.1-0.1-0.1-0.1c0,0,0-0.1,0.1-0.2c0.6-0.7,0.8-0.9,1.3-1.4c0.2-0.2,0.5-0.6,0.5-0.9c0-0.5-0.9-0.9-2.1-0.9
		c-0.2,0-0.4,0-0.5,0c-0.1,0-0.3,0-0.4,0c-0.2,0-0.3-0.1-0.3-0.1c0,0,0.4-0.6,1.9-0.6c2.1,0,4,1.2,4,1.7c0,0.3-0.3,0.4-0.5,0.5
		C18.3,276.4,17.3,276.6,15.7,277.9z"/>
	<path d="M5.9,305.9c2.3-0.1,6-3,9.4-3.2c1.6-0.1,2.3,0.6,2.3,1.1c0,0.3-0.3,0.6-0.9,0.6c-0.1,0-0.3,0-0.4-0.1
		c-0.5-0.1-0.9-0.2-1.4-0.2c-4.9-0.1-6.4,3.5-6.5,5c0,2.3,2.2,4.2,4.8,4.3c0.3,0,0.6,0,0.9-0.1c0.1,0,0.2,0,0.2,0c0.6,0,1,0.4,1,0.8
		c0,0.8-1.4,0.8-1.6,0.8c-3.4-0.1-6-2.8-6-5.5c0-1.1,0.5-2.3,1.5-3.2c0.4-0.4,0.6-0.5,0.6-0.6c0,0,0,0,0,0c-0.3,0-2.4,1.3-2.9,1.7
		c-0.3,0.2-0.7,0.3-1.1,0.3c-0.9,0-1.7-0.4-1.7-1.1c0-0.1,0-0.2,0.1-0.3c0.3-0.8,0.4-0.4,1.4-1.5c6.6-7.3,6.7-7.5,6.7-8.3
		c0-0.4-0.2-0.6-0.5-0.6c-0.4,0-0.8,0.2-1.2,0.8c-0.7,0.8-0.9,1.1-1.5,1.1c-1.2,0-2.3-1.5-2.2-2.1c0,0,0-0.1,0.1-0.1
		c0,0,0.1,0,0.1,0c0.7,0.2,1.2,0.5,1.8,0.5c0.2,0,1.1,0,1.9-0.7c0.4-0.3,0.9-0.4,1.4-0.4c1,0,1.9,0.6,1.9,1.4c0,0.5-0.4,1.2-1.2,2
		c-2.8,2.6-6.9,6.8-6.9,7.5C5.6,305.8,5.7,305.9,5.9,305.9L5.9,305.9z"/>
	<path d="M10.7,338.4c-3.8-0.1-7-1.8-7-4c0-1.1,1-2.3,1.4-2.3c0.1,0,0.1,0.1,0.1,0.2c0,0.1-0.1,0.3-0.2,0.5
		c-0.3,0.4-0.5,0.8-0.5,1.2c0,1.7,2.9,2.9,5.8,3c0.6,0,1.3,0,1.9-0.1c1.3-0.2,2-0.6,2.6-0.8c0.2,0,0.4,0,0.6,0
		c0.7,0,1.1,0.3,1.1,0.6C16.3,337.6,13.4,338.4,10.7,338.4z M8.7,323.6c-2.4-0.1-3.4-1.6-3.4-1.7c0-0.1,0.1-0.1,0.1-0.1
		c0.2,0,0.5,0.2,0.8,0.2c1,0.4,2,0.5,3,0.5c0.9,0,1.7,0,2.5,0c0.4,0,0.7,0,1.1,0c1.3,0,1.9,0.6,1.9,1c0,0.2-0.3,0.5-0.9,0.5
		c-1.4,0-3.3,1.2-4.5,2.1c-0.2,0.2-0.4,0.2-0.6,0.2c-0.1,0-0.1,0-0.1-0.1c0-0.2,0.5-0.7,1.4-1.7c0.3-0.3,0.5-0.5,0.5-0.7
		c0-0.1-0.1-0.2-0.4-0.2L8.7,323.6z"/>
	<path d="M1.4,359.2c0-2.7,0.9-4.9,1.4-6.8c0.2-1,0.5-1.8,0.5-2.8c0-1-0.2-2-1.2-3.3c-0.1-0.2-0.3-0.4-0.3-0.4
		c0-0.1,0.3-0.1,0.3-0.1c0.9,0,2.7,2.4,2.6,4c0,1-0.6,1.6-1.1,3c-0.6,1.6-1.3,3.5-1.3,5.2c0,0.4,0.1,1.7,0.3,1.7
		c0.1,0,0.2-0.1,0.3-0.5c0.6-1.5,2.2-4.7,2.6-4.7c0.1,0,0.1,0.1,0.1,0.2c0,0.1,0,0.2-0.1,0.2c-1.1,2.2-2.2,5.4-2.3,7.1
		c0,0.4,0,0.9,0.2,1.3c0.1,0.2,0.1,0.4,0.1,0.6c0,0.4-0.2,0.6-0.5,0.6C2.2,364.6,1.3,362.1,1.4,359.2z M14.6,351.1c0-0.5,0-1,0-1.4
		l0-0.4c0-2.2-0.2-2.2-0.7-2.4c-0.4-0.2-0.7-0.2-0.7-0.4c0-0.1,0.4-0.7,1-0.7c0.5,0,1.7,0.8,1.7,1.8c0,0.1,0,0.3-0.1,0.4
		c0.5,0.2,1.3,0.6,1.6,0.7c0.3,0.1,0.8,0.2,1,0.3c0.2,0.1,0.4,0.4,0.4,0.7c0,1.3-3,2.1-3.4,2.2c0,0.5,0,1.1,0,1.6c0,1.7,0,3.3,0,4.1
		c0,0.7,0.1,1.5,0.1,2.3c2.3,0.8,3.9,2.4,3.9,3.2c0,0.4-0.2,0.8-0.6,0.8c-0.2,0-0.4-0.2-0.7-0.6c-0.6-1.1-1.7-2-2.7-2.4
		c-0.3,2-2,3.6-3.9,3.6c-1.8,0-3.3-1.4-3.3-2.6c0-1.3,1.8-2.4,4.4-2.4c0.6,0,1.2,0.1,1.8,0.2c0-0.5,0-0.9,0-1.3c0-1.1,0-3.6,0-6.1
		c-0.9,0.1-1.3,0.1-1.3,0.1c-2.9,0-4-2-4-2.2c0-0.1,0-0.1,0.1-0.1c0.1,0,0.3,0.1,0.5,0.2c0.4,0.2,1.2,0.6,1.7,0.8
		c0.5,0.2,1.1,0.3,1.8,0.3c0.2,0,0.4,0,0.6,0L14.6,351.1z M12.5,360.1c-1.6,0-3.3,0.5-3.4,1.6c0,0.8,1.2,1.4,2.3,1.5
		c1.5,0,2.7-1.2,3-2.8C13.8,360.2,13.1,360.1,12.5,360.1z M15.8,348.8c-0.1,0.7-0.2,1.4-0.2,2.1c1.8-0.4,2-0.9,2-1.1
		c0-0.3-0.2-0.5-1.7-1.6L15.8,348.8z"/>
	<path d="M18.8,373.9c-0.7-1.4-2.1-2.5-3-3.1c-0.2-0.2-0.5-0.3-0.5-0.4c0,0,0.1,0,0.2,0c0.7,0,5.2,1,5.2,3.2c0,0.7-0.5,1.1-0.9,1.1
		C19.3,374.6,19,374.4,18.8,373.9z"/>
</g>
</svg>
