<?xml version="1.0" encoding="utf-8"?>
<!-- Generator: Adobe Illustrator 28.0.0, SVG Export Plug-In . SVG Version: 6.00 Build 0)  -->
<svg version="1.1" id="レイヤー_1" xmlns="http://www.w3.org/2000/svg" xmlns:xlink="http://www.w3.org/1999/xlink" x="0px"
	 y="0px" viewBox="0 0 39 404" style="enable-background:new 0 0 39 404;" xml:space="preserve">
<style type="text/css">
	.st0{fill:#E85298;}
	.st1{fill:none;stroke:#000000;stroke-width:1.1783;}
</style>
<g>
	<path d="M23.4,19.3c0,0.2-2,0.5-2.8,1c-0.1,0.1-0.2,0.1-0.2,0.1c-0.1,0-0.1,0-0.3-0.1c-3.6-1.1-7.5-6.3-8.9-10.2
		c-1.1,9.3-10.1,12.1-11,12.1c-0.1,0-0.1,0-0.1-0.1c0-0.1,0.2-0.3,0.6-0.4C6.1,19.6,9.6,15,10,9.5l-0.6,0c-1.2,0.1-3.7,0.3-5.7,0.6
		l0,0c-0.4,0-1.4-1-1.4-1.3c2.3,0.2,6,0.1,7.3,0l0.5,0c0-0.4,0-0.7,0-1.1c0-0.7,0-1.3-0.1-1.9C9.9,3.6,9.8,3.1,9.8,3L8.5,3.1
		C7.2,3.2,4,3.5,1.8,3.8l0,0c-0.5,0-1.5-1-1.5-1.3c2.5,0.2,6.9,0.1,8.3,0l8.3-0.4c0.1,0,0.3-0.1,0.4-0.2c0.9-1.5,1-1.6,1.2-1.6
		c0.1,0,0.1,0,0.2,0c0.8,0.2,2.1,1.6,2.1,1.9c0,0.1-0.1,0.3-0.5,0.3l-8.5,0.5c0.1,0.1,0.2,0.2,0.2,0.2c0,0.2-0.1,0.4-0.3,0.5
		c-0.3,0.2-0.4,0.3-0.3,1.5c0,0.3,0.1,2,0.1,2.7c0,0.3,0,0.5,0,0.8L16,8.5c0.1,0,0.3-0.1,0.4-0.2c0.3-0.3,0.8-1.2,1-1.3
		c0.1-0.1,0.1-0.1,0.2-0.1c0.5,0,2.1,1.4,2.1,1.8c0,0.1-0.1,0.3-0.5,0.3l-7.7,0.4c1.4,3.1,4.8,8.7,11.6,9.8
		C23.3,19.3,23.4,19.3,23.4,19.3z"/>
	<path d="M22.3,28.3c0,0.3-0.3,0.5-0.7,0.7c-0.5,0.3-0.5,0.3-0.4,2.6c0.2,3.8,0.8,12.2,1.2,15.4l0,0c0,0.6-0.4,0.9-0.8,0.9
		c-0.3,0-0.6-0.2-0.6-0.6l-0.1-1.1L5.1,47.1l0.1,1.1c0,0.5-0.5,0.9-0.9,0.9c-0.3,0-0.6-0.2-0.6-0.6l0-0.1c0.1-3-0.2-9.6-0.5-14.6
		l-0.1-1.9c0-0.6-0.2-3.1-0.5-4.1c0-0.1,0-0.1,0-0.2c0,0,0,0,0-0.1c0,0,1.6,0.5,2.3,0.9l0.2,0.1l14-0.7c0.1,0,0.2-0.1,0.3-0.2
		c0.5-0.7,0.7-0.8,0.8-0.8C20.4,26.8,22.3,27.7,22.3,28.3z M19.7,28.8c0-0.1-0.1-0.3-0.3-0.3L5,29.3l-0.1,0.1
		c-0.5,0.4-0.5,0.5-0.4,1.4C4.6,33,4.7,40.3,5,46.4l15.8-0.8C20.5,39.1,20.1,31.6,19.7,28.8z M19.4,42.3c0,0.1-0.1,0.3-0.5,0.3
		l-6.7,0.4c-0.4,0-3.1,0.2-4.9,0.5l0,0c-0.4,0-1.2-0.8-1.2-1.1c2,0.2,4.9,0.1,5.9,0c0-1.2-0.1-3.2-0.2-5c-0.4,0-2.1,0.2-3.4,0.5l0,0
		c-0.4,0-1.1-0.8-1.2-1.1c1.7,0.1,3.8,0.1,4.6,0.1c0-0.7-0.1-1.3-0.1-1.8c0-0.6-0.1-1.4-0.2-2.2c-0.8,0.1-2.6,0.2-4,0.5l0,0
		c-0.4,0-1.2-0.8-1.2-1.1c2.2,0.2,4.9,0.1,5.6,0.1l2.8-0.2c0,0,0.2-0.1,0.3-0.2c0.8-1.4,0.9-1.4,1-1.4c0.1,0,0.2,0,0.2,0
		c0.7,0.2,1.8,1.3,1.9,1.6c0,0.1-0.1,0.3-0.5,0.3l-4.3,0.2c0,0,0,0,0,0.1c0,0.1-0.1,0.3-0.3,0.4c-0.2,0.1-0.2,0.1-0.2,0.8
		c0,0.9,0.1,1.8,0.1,2.8l1.3-0.1c0,0,0.2,0,0.3-0.1c0.2-0.3,0.7-1.2,0.9-1.2c0.3,0,1.9,0.9,1.9,1.5c0,0.1-0.1,0.3-0.4,0.3l-3.9,0.2
		l0.3,5l2.7-0.1c0,0,0.3-0.1,0.3-0.2c0.3-0.4,0.5-1,0.9-1.4c0-0.1,0.1-0.1,0.2-0.1c0,0,0.1,0,0.2,0C18.2,40.7,19.4,42,19.4,42.3z
		 M17.4,39.4c0,0.4-0.2,0.7-0.6,0.7c-0.2,0-0.5-0.1-0.8-0.5c-0.4-0.6-1.2-1.2-1.8-1.6c-0.1,0-0.1-0.1-0.1-0.1c0,0,0.1-0.1,0.2-0.1
		l0.1,0C15.8,37.8,17.3,38.4,17.4,39.4z"/>
	<path d="M12.3,73.3c-0.1,0-0.2-0.1-0.2-0.2c0-0.2,0.1-0.4,0.2-0.5c2.5-0.3,1.9-1.5,1.9-3.7l0-0.4c0-0.6-0.1-0.7-0.2-0.7
		c-0.3,0-0.9,0-1.5,0.1c-1.5,0.1-3.6,0.2-4.4,0.6c-0.2,0.1-0.3,0.1-0.5,0.1c-0.1,0-1.2-0.2-1.2-0.7c0-0.2,0.2-0.5,0.4-0.7
		C8,65.8,9.6,63,11.1,60c1.2-2.3,2.3-4.6,3.2-6.2c0.2-0.3,0.5-0.7,1.7-0.8c0.3,0,0.5,0.1,0.5,0.4c0,0.1-0.1,0.3-0.2,0.5
		c-1.1,1.6-2,3.2-2.9,4.7c-1.7,3.1-3.1,5.4-4.7,7.9c-0.1,0.1-0.2,0.4-0.2,0.5c0,0.2,0.1,0.3,0.5,0.3l0.1,0c1.7-0.2,3.5-0.3,4.8-0.4
		c0.1,0,0.1-0.2,0.1-0.2c0-0.6-0.2-3.5-0.4-4.7l0-0.1c-0.1-1,1.5-1.5,1.6-1.5c0,0,0.1,0,0.1,0c0.1,0,0.3,0.1,0.3,0.3l0,0.1
		c-0.1,0.7,0.1,5.3,0.1,5.9c0,0,0.1,0.1,0.2,0.1c0.2,0,0.7-0.1,1.8-0.3c0.2,0,0.4-0.1,0.5-0.1c0.2,0,0.3,0,0.3,0.2
		c0.1,1.1-0.6,1.1-1.3,1.1c-0.4,0-0.6,0-1.3,0c0,0-0.1,0.1-0.1,0.2c0,0.1,0,0.3,0,0.5c0,0.2,0,0.4,0.1,0.5c0.2,2-0.1,3.3,2.3,3.4
		c0.1,0.1,0.2,0.3,0.2,0.4c0,0.1-0.1,0.3-0.3,0.3c0,0-1.6-0.1-3.3,0C14.1,73,13.2,73.1,12.3,73.3L12.3,73.3z"/>
	<path d="M20.8,94.3c-0.3,2-0.6,2.7-0.7,3.5c0,0.1,0,0.2-0.2,0.3c0,0-2.7,0-5.6,0.2c-1.4,0.1-2.9,0.2-4.1,0.3l0,0
		c-0.2,0-0.7-0.3-0.7-0.5c0,0,0-0.1,0.1-0.2c2.4-1.6,6-6.5,7.4-9.9c0.4-0.9,0.7-2.4,0.7-3.7c-0.1-1.6-0.8-2.9-2.9-2.8
		c-0.6,0-2.6,0.2-4,3.2c-0.1,0.2-0.2,0.2-0.3,0.2c-0.2,0-0.4-0.1-0.4-0.4c0-0.2,1.4-4.7,5.1-4.9c2.8-0.1,4.6,1.8,4.7,4.4
		c0.1,1.4-0.3,3-1.3,4.6c-1.6,2.8-4,4.6-5.7,7.4c0,0.1,0,0.1,0,0.1c0,0.1,0.2,0.2,0.3,0.3c0.6,0,1.1,0,1.7,0
		c2.8-0.1,4.8-0.4,5.5-2.5c0-0.1,0.1-0.1,0.2-0.1C20.6,94.1,20.8,94.2,20.8,94.3L20.8,94.3z"/>
	<path d="M11.6,110.1c-0.2-3.1,2.5-4.7,4.6-4.8c2.4-0.1,4.6,1.5,4.7,4.1c0.1,1.8-0.9,3.1-2.5,4.1c0,0,0,0.1,0,0.1
		c0,0.1,0,0.1,0.1,0.1c2,1,3.5,2.4,3.7,5.1c0.1,2.5-1.6,5-5.2,5.2c-2.6,0.1-5.2-1.4-5.4-4.6c-0.1-2.2,1.4-4,3-5
		c0.1,0,0.1-0.1,0.1-0.2c0,0,0-0.1,0-0.1C12.9,113.3,11.7,111.9,11.6,110.1z M17.4,115.4c-1.1-0.5-1.5-0.7-1.8-0.7
		c-0.1,0-0.1,0-0.1,0c-1.4,1.1-2.3,2.7-2.2,4.8c0.1,2,1.5,3.8,3.8,3.7c2.1-0.1,3.6-1.8,3.5-3.8C20.4,117.1,18.4,116,17.4,115.4z
		 M19.1,109.2c-0.1-2.1-1.1-3.4-3.1-3.3c-1.5,0.1-2.9,1.5-2.8,3.6c0.1,2.2,3.2,3.6,3.9,3.6C17.4,113.1,19.2,111.9,19.1,109.2z"/>
	<path class="st0" d="M28.5,174.7c0,0.5-1,0.5-1.6,0.9c-1.7,1.1-4.4,2.6-5.7,3.2c-0.1,0.2-0.1,0.4-0.2,0.6
		c-1.6,4.8-5.6,9.4-9.9,10.6c-0.4,0.1-0.6,0.1-0.7,0.1c0,0-0.1,0-0.1,0c0-0.1,0.2-0.2,0.5-0.3c4.4-2.2,8.7-8.4,8.8-11.4
		c0-0.9-0.4-1.2-1-1.3c-0.2,0-0.3-0.1-0.3-0.2c0-0.3,0.6-0.6,1-0.6c0.1,0,0.1,0,0.2,0c1,0.2,1.9,0.4,1.8,1.6c0,0.1,0,0.2,0,0.2
		c0.9-0.6,4.1-2.9,4.2-3.7c0-0.3-0.3-0.4-0.7-0.4c-0.7,0-4.9,0.3-7.8,1.1c-0.8,0.2-1.3,0.4-1.7,0.4c-1,0-3.1-1.2-3-2.1
		c0-0.2,0.1-0.3,0.3-0.3c0.1,0,0.2,0.1,0.3,0.1c0.5,0.5,1.3,0.6,2.3,0.7c0.4,0,0.9,0,1.4,0c2.5-0.2,5.7-0.6,7.9-0.7
		c1.1-0.1,1-0.3,1.3-0.3C26.5,172.8,28.5,173.9,28.5,174.7z"/>
	<path class="st0" d="M25.6,192c0.1,0.6-0.6,1.3-0.9,2c-2.1,6-5.5,11.9-11.4,14.8c-0.3,0.2-0.5,0.2-0.7,0.3c-0.1,0-0.1,0-0.1,0
		c0-0.1,0.2-0.3,0.4-0.4c6.9-4,10.7-14.4,10.4-16.1c-0.1-0.5-0.5-0.8-1.4-0.9c-0.2,0-0.3-0.1-0.3-0.2c-0.1-0.3,0.4-0.6,0.8-0.7
		C23.6,190.5,25.5,191.2,25.6,192z"/>
	<path class="st0" d="M28.3,214c0,0.2-0.1,0.5-0.4,0.7c-0.5,0.4-0.4,0.7-0.5,1.3c-0.1,1.9-0.3,5.5-0.4,7.1c1.2-0.2,2,0.4,2,0.7
		c0,0.2-0.1,0.4-0.5,0.5c-0.1,0-0.1,0-0.2,0c-0.6,0-1.4,0.1-2.4,0.3c-1.9,0.4-4.3,1.1-6,1.9c-0.5,0.2-0.9,0.4-1.4,0.5
		c-0.9,0.2-3-0.4-3.1-1.1c0-0.1,0-0.2,0.1-0.2c0.1,0,0.4,0,0.7,0.1c0.4,0.1,1.1,0,1.7-0.1c0.3-0.1,0.5-0.1,8.2-2.3c0-1,0-2.6,0-4.2
		l-0.2,0c-1.4,0.3-3.7,1-5.8,2c-1.1,0.5-1.2,0.5-1.4,0.6c-1,0.2-2.8-0.6-2.9-1.2c0-0.1,0-0.2,0.1-0.2c0.2,0,0.4,0,0.7,0.1
		c0.4,0.1,1.2,0,1.8-0.1c0.4-0.1,0.8-0.2,0.9-0.2c1.7-0.5,3.4-1.2,5.1-1.7c0.1-0.1,0.3-0.1,0.4-0.1c0.5-0.1,1,0,1.5,0.1
		c-0.1-3-0.1-3.3-0.1-3.4c-0.1-0.5-0.3-0.6-0.7-0.6c-0.7,0.1-4.1,1.1-7,2.5c-0.4,0.2-0.8,0.4-1.2,0.4c-0.8,0.1-2.7-0.3-2.8-1.2
		c0,0,0-0.1,0.1-0.1c0.1,0,0.3,0,0.6,0.1c0.3,0,0.9,0,1.5-0.1c0.5-0.1,0.9-0.2,1.2-0.3c2.5-0.7,4.3-1.4,6.7-2c1-0.3,0.8-0.7,1.3-0.8
		C26.2,213,28.3,213.5,28.3,214z"/>
	<path class="st0" d="M20.3,240.9c0,0.3-0.2,0.5-0.6,0.5c-0.2,0-0.5-0.1-0.8-0.4c-0.9-0.7-2.4-1.5-3.4-1.9c-0.1,0-0.2-0.1-0.2-0.1
		c0-0.1,0.9-0.3,2.2-0.1C20.4,239.2,20.3,240.6,20.3,240.9z M20.5,248.3c-0.3,0.2-0.6,0.3-0.8,0.5c-0.2,0.2-0.4,0.3-0.7,0.3
		c-0.5-0.1-2.6-1.2-2.5-2.5c0-0.1,0.2-0.8,0.5-0.8c0.1,0,0.2,0.2,0.3,0.3c0.3,0.6,0.7,0.9,1.3,0.9c3.2,0.4,11.9-6.1,15.7-9.7
		c0.3-0.3,0.5-0.4,0.5-0.4c0,0,0,0,0,0c0,0.1-0.1,0.3-0.3,0.6C32.3,241.1,26.3,245.8,20.5,248.3z M24.5,237.3c0,0.3-0.3,0.6-0.6,0.5
		c-0.2,0-0.5-0.2-0.8-0.5c-0.8-0.8-2.2-1.8-3.1-2.4c-0.1-0.1-0.2-0.1-0.2-0.1c0,0,0-0.2,1.1-0.1C23.2,235.1,24.6,236.2,24.5,237.3z"
		/>
	<path class="st0" d="M32.3,260.1c0,0.2-0.1,0.3-0.4,0.5c-0.5,0.3-0.8,0.4-1.3,1.2c-3.6,5.6-7.9,9.9-13.7,11.3c-0.2,0-0.3,0.1-0.4,0
		c-0.1,0-0.2-0.1-0.2-0.1c0-0.1,0.2-0.2,0.5-0.4c7.2-2.5,12.6-11.5,12.7-12.1c0-0.4-0.3-0.7-0.8-0.7c-0.5,0-3.5,0.3-5.7,0.9
		c-1.1,0.3-1.7,0.5-2.2,0.5c-1-0.1-3.1-1.5-3.1-2.1c0-0.2,0.3-0.4,0.5-0.4c0.1,0,0.2,0.1,0.3,0.2c0.2,0.4,1.1,0.6,2.2,0.7
		c0.5,0,1.1,0,1.7,0c1.2,0,4.5-0.4,5.8-0.4c0.7,0,1-0.6,1.5-0.6C30.2,258.5,32.3,259.3,32.3,260.1z M33.9,258.5
		c0,0.4-0.3,0.7-0.7,0.7c-0.2,0-0.4-0.1-0.6-0.4c-0.6-0.8-1.5-1.5-2.1-1.9c-0.1-0.1-0.3-0.2-0.3-0.2c0-0.1,0.5,0,0.6,0
		C31.3,256.7,34,257,33.9,258.5z M36.6,257.5c0,0.4-0.3,0.6-0.6,0.6c-0.2,0-0.4-0.1-0.6-0.4c-0.7-0.8-1.5-1.4-2.2-1.8
		c-0.1-0.1-0.4-0.2-0.4-0.2c0,0,0.2-0.1,0.7-0.1C34.6,255.7,36.7,256.2,36.6,257.5z"/>
	<path class="st0" d="M34.6,281.6c0.1,0.5-1,1.1-1.4,1.7c-1.4,2.6-4.1,5.6-4.5,5.7c-0.1,0-0.1,0-0.1-0.1c0-0.1,0.1-0.2,0.2-0.4
		c1.4-2,2.9-5.7,2.8-6.3c0-0.2-0.2-0.3-0.4-0.2c-0.1,0-1.8,0.5-5.8,3.1c1.3,3.2,2.7,6.2,4.5,9.2c0.5,1,0.7,1.7,0.7,2
		c0.1,0.6-0.1,1.1-0.4,1.1c-0.2,0-0.9-0.1-1.9-2.5c-0.1-0.4-0.2-0.8-0.5-1.4c-0.8-2.1-2.1-5.1-3.4-7.9c-0.9,0.6-1.8,1.2-2.6,1.8
		c-0.9,0.6-1.4,0.9-2,1c-1.1,0.2-2.7-0.3-3-0.7c-0.1-0.1-0.1-0.3-0.2-0.3c0-0.2,0.1-0.3,0.3-0.3c0.2,0,0.4,0,0.4,0
		c0.3,0.1,0.6,0,1,0c1.3-0.2,2.6-0.8,5.6-2.5c-2.1-4.7-2.7-4.6-3.4-4.5c-0.1,0-0.3,0-0.4,0.1c-0.1,0-0.1,0-0.2,0
		c-0.2,0-0.4,0-0.4-0.1c0-0.3,0.3-0.8,1.2-1c0.8-0.1,2.8,0,3,0.9c0,0.2,0,0.4,0,0.5c0,0.2,0,0.4,0,0.6c0.1,0.5,0.6,1.7,1.1,3
		c1.6-0.9,3.2-1.8,4.5-2.4c1.4-0.7,1.1-1.2,1.9-1.3C31.8,280.5,34.4,280.8,34.6,281.6z"/>
	<path d="M24.8,313.9c-1.1,4-2.3,8-3,12c-0.1,0.7-0.5,1.7-1.2,1.7c-0.7,0-0.7-0.8-0.8-0.9c0-0.4,0.1-0.8,0.4-1.3
		c0.5-0.9,3.1-8.6,3.7-11.6c-1.1,0.3-1.6,0.4-1.8,0.4c-2.6,0.1-3.4-1.6-3.4-1.9c0-0.1,0-0.1,0.1-0.1c0.1,0,0.4,0.1,0.5,0.2
		c0.4,0.3,1.5,0.8,2.8,0.7c0.7,0,1.6-0.2,2.1-0.4c0.1-0.6,0.1-1.1,0.1-1.6c0-0.9-0.3-1.6-0.9-1.7c-0.4,0-0.7-0.1-0.7-0.3
		c0-0.2,0.6-0.6,1-0.6c0.5,0,1.5,0.3,1.7,1.8c0.8,0.2,1.4,0.3,1.8,0.4c0.4,0.1,0.5,0.3,0.6,0.6c0.1,1.1-2.2,2.1-2.8,2.3L24.8,313.9z
		 M25.2,312.2c0.7-0.4,1.3-0.8,1.3-1.1c0-0.2-0.8-0.6-1.1-0.7C25.4,310.9,25.4,311.5,25.2,312.2z M34.7,325.2c1-0.1,1.5,0.2,1.6,0.6
		c0,0.2-0.3,0.8-2.1,0.9c-3,0.2-6-1.2-6.1-3c-0.1-1,0.6-1.5,0.7-1.5c0,0,0.1,0,0.1,0.1c0,0.1,0,0.3-0.1,0.4
		c-0.1,0.2-0.1,0.3-0.1,0.5c0.1,1.1,1.9,2.1,4.3,2.1C33.4,325.4,33.9,325.3,34.7,325.2L34.7,325.2z M32.3,316.6
		c-0.1,0.1-0.2,0.2-0.2,0.2c0,0-0.1,0-0.1-0.1c0,0,0-0.2,0.1-0.2c0.6-0.8,0.8-0.9,1.2-1.5c0.2-0.2,0.5-0.6,0.5-0.9
		c0-0.5-1-0.8-2.1-0.7c-0.2,0-0.4,0-0.5,0c-0.1,0-0.2,0.1-0.3,0.1c-0.2,0-0.3,0-0.3-0.1c0,0,0.4-0.6,1.9-0.7
		c2.1-0.1,4.1,0.9,4.1,1.4c0,0.3-0.3,0.4-0.5,0.5C34.8,314.9,33.9,315.2,32.3,316.6z M34.2,310c-0.7-0.8-1.7-1.3-2.4-1.7
		c-0.2-0.1-0.4-0.2-0.4-0.2c0-0.1,0.3-0.1,0.6-0.1c1.8-0.1,3.4,0.6,3.4,1.6c0,0.4-0.2,0.7-0.6,0.7C34.7,310.4,34.5,310.3,34.2,310z
		 M36.8,308.7c-0.7-0.7-1.7-1.3-2.4-1.6c-0.2-0.1-0.4-0.1-0.4-0.2c0,0,0.1-0.1,0.7-0.1c2.1-0.1,3.3,0.7,3.4,1.5
		c0,0.4-0.2,0.7-0.6,0.7C37.3,309,37.1,308.9,36.8,308.7z"/>
	<path d="M37.5,338.6c0.1,2.4-2.8,5.9-9.4,6.3c-0.6,0-0.9,0-0.9-0.1c0-0.2,0.4-0.3,0.9-0.4c8.2-1.8,8.2-5.5,8.2-5.8
		c-0.1-1-1-2.5-3.4-2.4c-1.6,0.1-3.6,1-5.3,2.8c-0.7,0.7-1.5,1.1-2.2,1.2c-0.8,0-1.5-0.6-1.6-0.9c0-0.1,0.1-0.2,0.5-0.3
		c1.1-0.1,2.4-1.1,3.4-1.7c1.5-1,3.3-1.9,5-2C34.8,335,37.4,336.4,37.5,338.6z"/>
	<path d="M27.2,358.6c-1.1,4-2.3,8-3,12c-0.1,0.7-0.5,1.7-1.2,1.7c-0.7,0-0.7-0.8-0.8-0.9c0-0.4,0.1-0.8,0.4-1.3
		c0.5-0.9,3.1-8.6,3.7-11.6c-1.1,0.3-1.6,0.4-1.8,0.4c-2.6,0.1-3.4-1.6-3.4-1.9c0-0.1,0-0.1,0.1-0.1c0.1,0,0.4,0.1,0.5,0.2
		c0.4,0.3,1.5,0.8,2.8,0.7c0.7,0,1.6-0.2,2.1-0.4c0.1-0.6,0.1-1.1,0.1-1.6c0-0.9-0.3-1.6-0.9-1.7c-0.4,0-0.7-0.1-0.7-0.3
		c0-0.2,0.6-0.6,1-0.6c0.5,0,1.5,0.3,1.7,1.8c0.8,0.2,1.4,0.3,1.8,0.4c0.4,0.1,0.5,0.3,0.6,0.6c0.1,1.1-2.2,2.1-2.8,2.3L27.2,358.6z
		 M27.6,356.9c0.7-0.4,1.3-0.8,1.3-1.1c0-0.2-0.8-0.6-1.1-0.7C27.8,355.6,27.8,356.2,27.6,356.9z M37.1,369.9c1-0.1,1.5,0.2,1.6,0.6
		c0,0.2-0.3,0.8-2.1,0.9c-3,0.2-6-1.2-6.1-3c-0.1-1,0.6-1.5,0.7-1.5c0,0,0.1,0,0.1,0.1c0,0.1,0,0.3-0.1,0.4
		c-0.1,0.2-0.1,0.3-0.1,0.5c0.1,1.1,1.9,2.1,4.3,2.1C35.8,370.1,36.3,370,37.1,369.9L37.1,369.9z M34.7,361.3
		c-0.1,0.1-0.2,0.2-0.2,0.2c0,0-0.1,0-0.1-0.1c0,0,0-0.2,0.1-0.2c0.6-0.8,0.8-0.9,1.2-1.5c0.2-0.2,0.5-0.6,0.5-0.9
		c0-0.5-1-0.8-2.1-0.7c-0.2,0-0.4,0-0.5,0c-0.1,0-0.2,0.1-0.3,0.1c-0.2,0-0.3,0-0.3-0.1c0,0,0.4-0.6,1.9-0.7
		c2.1-0.1,4.1,0.9,4.1,1.4c0,0.3-0.3,0.4-0.5,0.5C37.2,359.6,36.2,359.9,34.7,361.3z"/>
	<line class="st1" x1="17.5" y1="139.4" x2="18.7" y2="161.2"/>
	<line class="st1" x1="30.4" y1="382.1" x2="31.6" y2="403.8"/>
</g>
</svg>
