<?xml version="1.0" encoding="utf-8"?>
<!-- Generator: Adobe Illustrator 28.0.0, SVG Export Plug-In . SVG Version: 6.00 Build 0)  -->
<svg version="1.1" id="レイヤー_1" xmlns="http://www.w3.org/2000/svg" xmlns:xlink="http://www.w3.org/1999/xlink" x="0px"
	 y="0px" viewBox="0 0 28 290" style="enable-background:new 0 0 28 290;" xml:space="preserve">
<style type="text/css">
	.st0{fill:#E85298;}
</style>
<g>
	<path class="st0" d="M28,5.9c0.1,0.3-0.3,0.7-0.8,0.8c-0.1,0-0.2,0-0.3,0c-1.3-0.1-2.7,0-4.2,0.2c-0.6,0.1-1.2,0.2-1.9,0.4
		c0,0.2,0,0.4,0.1,0.7c1.3,9.3-6.3,13-6.8,13.1c0,0-0.1,0-0.1,0c0,0,0.2-0.3,0.8-0.7c3.5-2.8,5.5-7,4.9-12.3l-0.1-0.3
		c-1.3,0.3-2.5,0.7-3.8,1c0.1,0.6,0.2,1.3,0.6,2.7c0.1,0.2,0.1,0.4,0.1,0.6c0.1,0.6,0,1.5-0.5,1.6c-0.3,0-0.6-0.3-0.8-1.2
		c0-0.1,0-0.2,0-0.3c-0.1-1-0.1-1.6-0.2-2.3c0-0.2-0.1-0.5-0.1-0.8l-1.4,0.4c-0.9,0.3-1.8,0.9-2.7,1c-0.9,0.1-3.2-0.2-3.3-1.2
		c0,0,0,0,0,0c-0.1-0.3,0-0.5,0.2-0.5c0.2,0,0.5,0.1,0.7,0.2C9.7,9,10.5,9,11.5,8.9c0.3-0.1,0.7-0.1,1-0.2c0.7-0.2,1.5-0.4,2.2-0.6
		c-0.5-2-0.8-3.1-2.2-3c-0.2,0-0.3-0.1-0.3-0.2c0-0.1,0.2-0.5,0.8-0.6c0.6-0.1,2.5,0.4,2.6,1.1c0,0.2-0.1,0.3-0.1,0.4
		c-0.1,0.3,0,1.1,0,1.4s0.1,0.5,0.1,0.7c1.3-0.4,2.6-0.7,3.8-1c-0.1-0.6-0.1-1.1-0.2-1.8c0-0.3-0.1-0.5-0.1-0.8
		c-0.3-1.6-0.8-2.1-1.6-2.1c-0.2,0-0.3-0.1-0.4-0.2s0.2-0.5,0.7-0.6c0.9-0.1,2.9,0.8,2.9,1.3c0,0.2-0.1,0.5-0.1,0.7
		c-0.2,0.7-0.3,1.1-0.1,3.1c0.9-0.2,1.7-0.5,2.4-0.7c1-0.3,1.2-0.6,1.9-0.7C25.3,5,27.9,5,28,5.9z"/>
	<path class="st0" d="M25.4,30.7c0,0.2-0.2,0.4-0.7,0.4c-0.5,0.1-1.1,0.7-1.7,1.3c-4.8,5.1-9.5,8.6-16,9.5c-0.3,0-0.5,0-0.6,0
		c-0.1,0-0.1,0-0.1-0.1c0-0.1,0.3-0.3,0.7-0.4c5.8-1.3,10.6-5.2,15.4-10.5c0.2-0.2,0.3-0.4,0.4-0.5c0-0.2-0.1-0.3-0.6-0.4
		c-0.9-0.1-2.1,0-2.9,0.1c-0.2,0-0.4,0-0.6,0c-0.1,0-0.3-0.1-0.4-0.1c-3.4,2.9-5.8,4.8-8.7,5.5c-0.2,0-0.3,0.1-0.4,0.1
		c0,0-0.1,0-0.1-0.1c0-0.1,0.1-0.2,0.4-0.3c2.9-1.4,5.6-3.6,8.3-6.6c0.2-0.2,0.3-0.4,0.3-0.6c0.1-0.4-0.3-0.7-0.8-0.9
		c-0.1-0.1-0.2-0.2-0.2-0.3c0-0.1,0.4-0.5,1-0.4c0.9,0.1,1.8,1.2,1.7,1.9c-0.1,0.4-0.3,0.7-0.7,1c0.6,0.1,2.1,0,3.3,0.1
		c0.3,0,0.5-0.1,0.8-0.2c0.3-0.1,0.4-0.2,0.6-0.1C24.2,29.1,25.5,30.3,25.4,30.7z"/>
	<path class="st0" d="M24.1,52.9c0,0.2-0.1,0.3-0.3,0.6c-0.4,0.3-0.7,0.3-1.1,1.1c-3,6.8-7,10.3-11.5,12.1c-0.2,0.1-0.4,0.1-0.5,0.1
		c-0.1,0-0.1,0-0.1-0.1c0-0.1,0.2-0.2,0.4-0.4c3.3-1.8,7.4-5.4,10.4-12.3c0.1-0.1,0.1-0.3,0.1-0.4c0-0.3-0.3-0.5-0.8-0.5
		c-0.6,0.1-3.6,0.8-5.1,1.4c-1.2,0.5-1.7,0.8-2.4,0.9c-1,0.1-3.2-0.7-3.2-1.4c0-0.3,0.2-0.4,0.3-0.4c0.2,0,0.4,0,0.4,0.2
		c0.2,0.3,1,0.3,2,0.2c0.6-0.1,1.2-0.1,1.8-0.3c1.1-0.3,3.9-1,5.5-1.2c0.7-0.1,0.9-0.7,1.4-0.7C21.6,51.8,24,52.1,24.1,52.9z
		 M21.3,48.5c0,0.3-0.3,0.6-0.8,0.7c-1.7,0.3-3.9,0.8-5.8,1.3c-0.2,0.1-0.5,0.1-0.7,0.1c-1.4,0.1-2.3-0.5-2.3-1.1
		c0-0.1,0-0.2,0.2-0.3c0.1,0,0.2,0,0.3,0.1c0.5,0.3,1.2,0.4,2,0.3c1.1-0.1,2.4-0.5,3.4-0.8c0.8-0.2,1.1-0.9,2.1-1
		C20.1,47.9,21.2,47.9,21.3,48.5z"/>
	<path d="M14,80c-1.4,3.9-2.9,7.7-3.9,11.6c-0.2,0.7-0.6,1.6-1.3,1.6c-0.7,0-0.7-0.8-0.7-1c0-0.4,0.1-0.8,0.5-1.3
		c0.6-0.8,3.7-8.3,4.6-11.2C12.1,80,11.6,80,11.3,80c-2.6-0.1-3.2-1.8-3.2-2.2c0-0.1,0-0.1,0.1-0.1c0.1,0,0.3,0.2,0.5,0.3
		c0.4,0.3,1.4,0.9,2.7,0.9c0.7,0,1.6-0.1,2.1-0.2c0.1-0.5,0.2-1.1,0.2-1.6c0-0.9-0.2-1.6-0.7-1.7c-0.4-0.1-0.6-0.2-0.6-0.3
		c0-0.2,0.6-0.6,1.1-0.5c0.5,0,1.5,0.4,1.5,1.9c0.8,0.3,1.4,0.4,1.7,0.5c0.3,0.1,0.5,0.4,0.5,0.6c0,1.1-2.4,1.9-2.9,2.1L14,80z
		 M14.5,78.3c0.7-0.3,1.3-0.7,1.3-1c0-0.2-0.7-0.6-1-0.8C14.8,77,14.7,77.6,14.5,78.3z M22.8,91.9c1,0,1.5,0.4,1.5,0.7
		c0,0.2-0.3,0.8-2.1,0.7c-3-0.1-5.9-1.6-5.8-3.4c0-1,0.7-1.4,0.8-1.4c0.1,0,0.1,0.1,0.1,0.2c0,0.1,0,0.2-0.1,0.4
		c-0.1,0.2-0.1,0.3-0.1,0.5c0,1.1,1.7,2.3,4.1,2.4C21.6,92,22,91.9,22.8,91.9L22.8,91.9z M21.2,83.2c-0.1,0.1-0.2,0.1-0.3,0.1
		c0,0-0.1-0.1-0.1-0.1c0,0,0-0.1,0.1-0.2c0.6-0.7,0.8-0.9,1.3-1.4c0.2-0.2,0.5-0.6,0.5-0.9c0-0.5-0.9-0.9-2-0.9c-0.2,0-0.4,0-0.5,0
		c-0.1,0-0.2,0-0.3,0c-0.2,0-0.3-0.1-0.3-0.1c0,0,0.4-0.6,1.9-0.6c2.1,0.1,3.9,1.2,3.9,1.7c0,0.2-0.3,0.4-0.5,0.5
		C23.7,81.7,22.8,82,21.2,83.2z"/>
	<path d="M12.3,100.7c-0.1,0-0.2-0.1-0.2-0.1c0-0.4,0.6-0.7,1.1-0.7c0.6,0,1.3,0.5,1.2,1.6c0,0.2,0,0.2-0.4,2.7
		c0.9-0.4,1.9-1,2.2-1.2c0.2-0.1,0.4-0.1,0.6-0.1c0.3,0,0.5,0.1,0.5,0.4c0,0.7-2,1.6-3.5,2.2c-0.5,2.4-1,5.3-1,6.3
		c0,0.3,0,0.7,0.2,0.7c0.5,0,1.9-0.8,2.5-1.2c1-0.6,2-1.1,3.1-1c1.1,0,4.1,1,4,3.7c0,0.9-0.4,1.9-0.9,2.7c-2.4,3.4-8.5,3.5-8.6,3.5
		c-0.2,0-0.3,0-0.3-0.1c0-0.1,0.4-0.2,1.2-0.4c2-0.5,5.3-1.5,6.6-3.4c0.6-0.9,0.8-1.6,0.8-2.2c0-1.7-1.5-2.8-3-2.9
		c-2.2-0.1-4.4,2.6-4.9,3.6c-0.2,0.5-0.5,0.8-0.7,0.7c-0.4,0-1-0.7-1-2.3c0-0.7,0.1-1.6,0.3-2.4c0.2-1.1,0.6-3.2,0.9-5.1
		c-0.5,0.2-0.9,0.2-1.3,0.2c-2.2-0.1-2.8-2-2.8-2.1c0-0.1,0.1-0.1,0.2-0.1c0.1,0,0.2,0.1,0.4,0.1c1.1,0.6,1.7,0.9,2.4,0.9
		c0.4,0,0.8-0.1,1.3-0.2c0,0,0,0,0.1,0c0.1-0.7,0.1-1.4,0.1-1.9c0-1.2,0-2-0.7-2L12.3,100.7z"/>
	<path d="M8.3,133.9c-0.6,0-1.9-0.3-1.9-1.9c0-0.5,0.1-0.7,0.2-0.7c0.1,0,0.2,0.2,0.4,0.4c0.4,0.5,0.9,0.7,1.6,0.7
		c1.2,0,2.3-0.3,3.4-0.6c0.3-1,0.6-2.1,0.6-2.9c0-0.8-0.2-1.3-0.8-1.4c-0.2-0.1-0.5-0.2-0.5-0.4c0-0.2,0.8-0.7,1.4-0.7
		c1,0,1.2,1.1,1.2,1.6c0,0.7-0.5,2.2-0.9,3.2c0,0.1-0.1,0.2-0.1,0.3c0.6-0.2,1.1-0.3,1.7-0.3c2.4,0.1,2.3,3.1,2.3,4.1
		c-0.1,5.1-3.1,7.7-5.5,7.6c-0.4,0-0.8-0.1-1.1-0.2c-0.9-0.3-0.6-1.2-0.8-1.9c-0.1-0.4-0.1-0.6-0.1-0.8c0-0.1,0-0.1,0.1-0.1
		c0.1,0,0.3,0.2,0.6,0.7c0.4,0.7,1,1.1,1.8,1.1c2.2,0.1,3.9-3.4,4-6.8c0.1-1.9-0.5-3-1.4-3c-0.5,0-0.7,0.1-2,0.8
		c-1.2,2.6-3.3,6.5-4.9,9.3c-0.4,0.6-1,1.2-1.5,1.2c-0.2,0-0.4-0.2-0.4-0.5c0-0.4,0.3-0.9,0.7-1.4c1-1.5,3.8-5.3,5.3-8.4
		C9.4,133.9,8.7,133.9,8.3,133.9z M23.3,138.1c-0.1-0.1-0.4-0.1-0.9-0.1c-1.8,0-2.1-0.1-2.1-0.2c0-0.1,0.3-0.1,0.6-0.2
		c1.1-0.2,2.9-0.3,3-1.9c0.1-2-2-2.8-3.3-3.3c-0.5-0.2-0.7-0.3-0.7-0.4c0,0,0.1-0.1,0.3-0.1c3.1,0.1,5.2,2.1,5.1,4
		c0,1.4-1,2.2-1.6,2.2C23.5,138.2,23.4,138.2,23.3,138.1z M23.1,130.9c-0.7-0.7-1.7-1.2-2.3-1.6c-0.1-0.1-0.4-0.2-0.4-0.2
		c0-0.1,1-0.1,1-0.1c1.4,0,2.9,0.5,2.9,1.6c0,0.4-0.3,0.7-0.6,0.7C23.5,131.2,23.3,131.1,23.1,130.9z M25.7,129.6
		c-0.7-0.7-1.7-1.2-2.4-1.5c-0.2-0.1-0.4-0.1-0.4-0.2c0-0.1,0.6-0.2,1.2-0.1c2.2,0.1,2.8,1,2.8,1.5c0,0.3-0.2,0.6-0.6,0.6
		C26.1,129.9,25.9,129.8,25.7,129.6z"/>
	<path d="M7.5,154.1c-0.6,0.3-0.6,0.5-0.6,1l0,1.1c-0.1,2.2-0.3,6.6-0.4,10.9c0,1-0.1,2-0.1,2.9c0,0.3-0.3,0.8-0.9,0.8
		c-0.3,0-0.5-0.2-0.5-0.6l0-0.1c0.3-2.7,0.5-5.7,0.6-8.8c0.1-4.5,0-7.8-0.2-8.7c0-0.1,0-0.1,0-0.2c0,0,0-0.1,0.1-0.1
		c0.1,0,1.9,0.7,2.3,1.1l4.5,0.1c1-2.9,1-3.5,1-3.9c0-0.2,0-0.5,0-0.7c0-0.1,0-0.1,0.1-0.1c0,0,0.1,0,0.1,0c0,0,2.4,0.9,2.4,1.4
		c0,0.2-0.3,0.3-0.8,0.4c-0.3,0-0.4,0.2-0.5,0.3c-0.4,0.6-1.2,1.9-1.7,2.6l8.5,0.2c0.1,0,0.3,0,0.4-0.2c0,0,0.5-0.7,0.8-0.7
		c0.1,0,2,0.9,2,1.6c0,0.3-0.4,0.5-0.8,0.7c-0.5,0.2-0.5,0.3-0.6,2.5c0,1.8,0,4.7-0.1,7.3c0,1.3,0.1,1.7,0,2.6
		c-0.1,3.4-3.2,3.4-3.4,3.4c-0.1,0-0.3-0.1-0.4-0.2c-0.4-0.5-3.4-1.8-3.4-1.9c0,0,0,0,0.1,0c0.1,0,0.2,0,0.3,0.1
		c1.4,0.3,2.5,0.4,3.3,0.5c1.6,0,2.1-0.5,2.2-1.6c0.1-3.1,0.2-5.5,0.2-7.4c0.1-2.2,0.1-3.9,0-5.5c0-0.1-0.1-0.3-0.3-0.3L7.5,154.1z
		 M17.4,165.2c0,0.6-0.6,0.8-0.8,0.8c-0.2,0-0.5-0.2-0.5-0.7l0,0c0-0.4,0-0.7,0.1-1.1l-4.7-0.1c0,0.4,0,0.9,0,1.5
		c0,0.5-0.4,0.8-0.8,0.7c-0.3,0-0.5-0.2-0.5-0.6l0-0.1c0.2-2,0.2-2.6,0.3-3.4c0-0.4,0-0.9,0-1.6c0-0.5,0-2.4-0.2-3.4
		c0-0.1,0-0.1,0-0.2s0,0,0.1,0c0,0,1.5,0.5,1.9,0.7l0,0l3.5,0.1c0.1,0,0.2-0.1,0.3-0.2c0.1-0.2,0.2-0.4,0.4-0.5c0,0,0.1,0,0.1,0
		c0.3,0,1.6,0.8,1.6,1.2c0,0.3-0.5,0.5-0.6,0.6c-0.3,0.3-0.3,0.1-0.3,0.7l0,0.7C17.3,162,17.4,163.7,17.4,165.2L17.4,165.2z
		 M16.3,163.6c0-0.8,0.1-1.6,0.1-2.4c0-0.8,0-1.6,0-2.4c0,0,0-0.2-0.1-0.3l-4-0.1l-0.1,0c-0.4,0.3-0.5,0.3-0.5,1.2l0,1
		c0,0.7,0,1.4,0,2.7L16.3,163.6z"/>
	<path d="M6.9,184.2c-0.6,0-1.9-0.3-1.9-1.9c0-0.5,0.1-0.7,0.2-0.7c0.1,0,0.2,0.2,0.4,0.4c0.4,0.5,0.9,0.7,1.6,0.7
		c1.2,0,2.3-0.3,3.4-0.6c0.3-1,0.6-2.1,0.6-2.9c0-0.8-0.2-1.3-0.8-1.4c-0.2-0.1-0.5-0.2-0.5-0.4c0-0.2,0.8-0.7,1.4-0.7
		c1,0,1.2,1.1,1.2,1.6c0,0.7-0.5,2.2-0.9,3.2c0,0.1-0.1,0.2-0.1,0.3c0.6-0.2,1.1-0.3,1.7-0.3c2.4,0.1,2.3,3.1,2.3,4.1
		c-0.1,5.1-3.1,7.7-5.5,7.6c-0.4,0-0.8-0.1-1.1-0.2c-0.9-0.3-0.6-1.2-0.8-1.9c-0.1-0.4-0.1-0.6-0.1-0.8c0-0.1,0-0.1,0.1-0.1
		c0.1,0,0.3,0.2,0.6,0.7c0.4,0.7,1,1.1,1.8,1.1c2.2,0.1,3.9-3.4,4-6.8c0.1-1.9-0.5-3-1.4-3c-0.5,0-0.7,0.1-2,0.8
		c-1.2,2.6-3.3,6.5-4.9,9.3c-0.4,0.6-1,1.2-1.5,1.2c-0.2,0-0.4-0.2-0.4-0.5c0-0.4,0.3-0.9,0.7-1.4c1-1.5,3.8-5.3,5.3-8.4
		C8,184.2,7.4,184.2,6.9,184.2z M22,188.4c-0.1-0.1-0.4-0.1-0.9-0.1c-1.8,0-2.1-0.1-2.1-0.2c0-0.1,0.3-0.1,0.6-0.2
		c1.1-0.2,2.9-0.3,3-1.9c0.1-2-2-2.8-3.3-3.3c-0.5-0.2-0.7-0.3-0.7-0.4c0,0,0.1-0.1,0.3-0.1c3.1,0.1,5.2,2.1,5.1,4
		c0,1.4-1,2.2-1.6,2.2C22.2,188.5,22.1,188.5,22,188.4z"/>
	<path d="M21.9,204.2c-0.1,2.4-3.2,5.6-9.7,5.4c-0.6,0-0.9-0.1-0.9-0.2c0-0.1,0.4-0.3,0.9-0.4c8.2-1.1,8.5-4.8,8.5-5.1
		c0-1-0.8-2.5-3.1-2.6c-1.6,0-3.7,0.7-5.5,2.3c-0.8,0.7-1.6,1-2.2,1c-0.8,0-1.5-0.7-1.5-1c0-0.1,0.1-0.2,0.5-0.2
		c1.1,0,2.4-0.9,3.5-1.4c1.6-0.9,3.4-1.6,5.1-1.5C19.6,200.5,22,202,21.9,204.2z"/>
	<path d="M10.2,223.2c-1.4,3.9-2.9,7.7-3.9,11.6c-0.2,0.7-0.6,1.6-1.3,1.6c-0.7,0-0.7-0.8-0.7-1c0-0.4,0.1-0.8,0.5-1.3
		c0.6-0.8,3.7-8.3,4.6-11.2c-1.1,0.2-1.6,0.3-1.8,0.2c-2.6-0.1-3.2-1.8-3.2-2.2c0-0.1,0-0.1,0.1-0.1c0.1,0,0.3,0.2,0.5,0.3
		c0.4,0.3,1.4,0.9,2.7,0.9c0.7,0,1.6-0.1,2.1-0.2c0.1-0.5,0.2-1.1,0.2-1.6c0-0.9-0.2-1.6-0.7-1.7c-0.4-0.1-0.6-0.2-0.6-0.3
		c0-0.2,0.6-0.6,1.1-0.5c0.5,0,1.5,0.4,1.5,1.9c0.8,0.3,1.4,0.4,1.7,0.5c0.3,0.1,0.5,0.4,0.5,0.6c0,1.1-2.4,1.9-2.9,2.1L10.2,223.2z
		 M10.7,221.5c0.7-0.3,1.3-0.7,1.3-1c0-0.2-0.7-0.6-1-0.8C11,220.2,10.9,220.8,10.7,221.5z M19,235.1c1,0,1.5,0.4,1.5,0.7
		c0,0.2-0.3,0.8-2.1,0.7c-3-0.1-5.9-1.6-5.8-3.4c0-1,0.7-1.4,0.8-1.4c0.1,0,0.1,0.1,0.1,0.2c0,0.1,0,0.2-0.1,0.4
		c-0.1,0.2-0.1,0.3-0.1,0.5c0,1.1,1.7,2.3,4.1,2.4C17.7,235.2,18.2,235.1,19,235.1L19,235.1z M17.4,226.4c-0.1,0.1-0.2,0.1-0.3,0.1
		c0,0-0.1-0.1-0.1-0.1c0,0,0-0.1,0.1-0.2c0.6-0.7,0.8-0.9,1.3-1.4c0.2-0.2,0.5-0.6,0.5-0.9c0-0.5-0.9-0.9-2-0.9c-0.2,0-0.4,0-0.5,0
		c-0.1,0-0.2,0-0.3,0c-0.2,0-0.3-0.1-0.3-0.1c0,0,0.4-0.6,1.9-0.6c2.1,0.1,3.9,1.2,3.9,1.7c0,0.2-0.3,0.4-0.5,0.5
		C19.9,224.9,19,225.2,17.4,226.4z"/>
	<path d="M19.5,264c-0.8,0-1.7,0.1-2.5,0c-2.1-0.1-4.4-0.3-4.3-2.6c0.1-3.2,0.2-6.2,0.2-6.5c0-0.5,0-1.1,0-1.8L10,253l0.2,0.1
		c0.2,0.1,0.3,0.2,0.3,0.3c0,0.1-0.1,0.2-0.3,0.3c-0.3,0.1-0.4,0.1-0.4,1c-0.6,7.2-6.7,9.6-9.5,9.6c-0.1,0-0.2,0-0.2,0
		c0-0.1,0.3-0.2,0.7-0.3c5.3-1.5,7.7-5.5,7.8-9.8c0-0.5,0-0.9,0-1.2c-1.4,0-3.8,0-5.9,0.1l0,0c-0.4,0-1.2-1-1.2-1.3
		c2.5,0.4,6,0.6,7.4,0.6l2.1,0.1c0.1-1.2,0.1-3,0.1-4.3l-5.1-0.1c-1.7,2.4-3.3,3.5-3.6,3.5c0,0,0,0,0-0.1c0,0,0.1-0.1,0.2-0.3
		c1.6-1.4,3.2-4.7,3.9-6.2c0.3-0.5,0.3-1.1,0.3-1.3c0-0.3,0-0.3,0-0.3c0.2,0,2.3,0.8,2.3,1.3c0,0.2-0.3,0.3-0.7,0.3
		c-0.4,0-0.4,0-0.6,0.4c-0.4,0.6-0.9,1.3-1.3,2l4.7,0.1l0-1c0-1.4,0.1-2.9-0.1-3.9c0-0.1,0-0.1,0-0.1c0,0,0-0.1,0.1-0.1
		c0.6,0,2.6,0.4,2.6,0.9c0,0.1-0.2,0.3-0.3,0.4c-0.7,0.5-0.8,0-0.9,1.5c0,0.4-0.1,1.3-0.1,2.3l3,0.1c0.2,0,0.3-0.1,0.4-0.2
		c1-1.4,1.3-1.4,1.4-1.4c0.1,0,0.1,0,0.2,0c0.8,0.3,2,1.6,2,2c0,0.1-0.1,0.3-0.6,0.3l-6.5-0.2c0,1.6-0.1,3.5-0.1,4.3l5.6,0.1
		c0.2,0,0.3-0.1,0.4-0.2c0.1-0.2,1.1-1.5,1.5-1.5c0.1,0,0.1,0,0.2,0c0.8,0.3,2.1,1.7,2.1,2.1c0,0.1-0.1,0.3-0.6,0.3l-6.8-0.2
		c0,0,0,0.1,0,0.1c0,0.1-0.3,0.2-0.3,0.3c-0.2,0.1-0.2,0.1-0.3,1.3c0,0.7-0.2,3.5-0.2,5.6c-0.1,2,0,2.4,3.1,2.5c0.7,0,1.6,0,2.5-0.1
		c1.1-0.1,1.5-1.8,1.9-3.9c0-0.1,0-0.1,0.1-0.1c0.1,0,0.3,3.1,0.6,3.3c0.2,0.2,0.4,0.4,0.4,0.6C22.4,262.9,21.7,263.9,19.5,264z"/>
	<path d="M2.9,283.4c0.1-2.7,1-4.9,1.4-6.7c0.2-1,0.5-1.8,0.5-2.7c0-1-0.2-2-1.1-3.3c-0.1-0.2-0.3-0.4-0.3-0.4
		c0-0.1,0.3-0.1,0.3-0.1c0.9,0,2.6,2.4,2.6,4c0,0.9-0.6,1.6-1.1,3c-0.6,1.6-1.3,3.4-1.4,5.2c0,0.4,0,1.6,0.3,1.6
		c0.1,0,0.2-0.1,0.3-0.5c0.7-1.5,2.2-4.7,2.6-4.6c0,0,0.1,0.1,0.1,0.2c0,0.1,0,0.1-0.1,0.2c-1.1,2.1-2.3,5.3-2.3,7
		c0,0.4,0,0.9,0.2,1.2c0.1,0.2,0.1,0.4,0.1,0.6c0,0.4-0.2,0.6-0.5,0.6C3.6,288.8,2.8,286.3,2.9,283.4z M16.1,275.5
		c0-0.5,0.1-1,0.1-1.4l0-0.3c0.1-2.2-0.2-2.2-0.7-2.4c-0.4-0.2-0.7-0.2-0.7-0.4c0-0.1,0.4-0.7,1-0.7c0.4,0,1.7,0.8,1.7,1.8
		c0,0.1,0,0.3-0.1,0.4c0.5,0.2,1.3,0.7,1.5,0.7c0.3,0.1,0.8,0.2,1,0.3c0.2,0.1,0.4,0.4,0.4,0.7c0,1.3-3,2-3.4,2.1
		c0,0.5-0.1,1.1-0.1,1.6c0,1.7,0,3.2,0,4c0,0.7,0.1,1.5,0,2.2c2.3,0.8,3.8,2.4,3.8,3.2c0,0.4-0.2,0.8-0.6,0.8
		c-0.2,0-0.4-0.2-0.7-0.6c-0.6-1.1-1.7-2-2.6-2.5c-0.3,2-2,3.5-3.9,3.5c-1.8,0-3.3-1.5-3.2-2.6c0-1.3,1.8-2.4,4.4-2.3
		c0.6,0,1.2,0.1,1.8,0.2c0-0.5,0-0.9,0.1-1.3c0-1.1,0-3.6,0.1-6c-0.9,0.1-1.2,0.1-1.3,0.1c-2.9-0.1-3.9-2.1-3.9-2.2
		c0-0.1,0-0.1,0.1-0.1c0.1,0,0.3,0.1,0.5,0.2c0.4,0.2,1.2,0.6,1.7,0.8c0.5,0.2,1.1,0.3,1.8,0.3c0.2,0,0.4,0,0.6,0L16.1,275.5z
		 M13.9,284.4c-1.6,0-3.3,0.4-3.3,1.6c0,0.8,1.2,1.4,2.2,1.5c1.5,0,2.7-1.1,3-2.7C15.1,284.6,14.5,284.5,13.9,284.4z M17.3,273.2
		c-0.1,0.7-0.2,1.4-0.2,2.1c1.8-0.4,2-0.9,2-1c0-0.3-0.2-0.5-1.6-1.6L17.3,273.2z"/>
</g>
</svg>
