<?xml version="1.0" encoding="utf-8"?>
<!-- Generator: Adobe Illustrator 28.0.0, SVG Export Plug-In . SVG Version: 6.00 Build 0)  -->
<svg version="1.1" id="レイヤー_1" xmlns="http://www.w3.org/2000/svg" xmlns:xlink="http://www.w3.org/1999/xlink" x="0px"
	 y="0px" viewBox="0 0 38 396" style="enable-background:new 0 0 38 396;" xml:space="preserve">
<style type="text/css">
	.st0{fill:#E85298;}
	.st1{fill:none;stroke:#000000;stroke-width:1.1783;}
</style>
<g>
	<path d="M10.8,3c-0.1-1.3-0.5-1.5-1.1-1.9C9.7,1.1,9.6,1,9.6,0.9c0-0.1,0.3-0.4,0.8-0.4c0.9,0,1.8,0.5,1.8,1.8c0,0.3,0,0.5,0,0.8
		C12.1,3.9,12,4.6,12,5.3C13,5.2,14.1,5,15.3,4.9c0.2,0,0.2-0.1,0.2-0.2c0-0.1,0-0.1-1.5-1.1c-0.5-0.3-0.7-0.5-0.7-0.5c0,0,0,0,0,0
		c0.1,0,0.5,0.2,0.7,0.2c1.2,0.5,2.4,1,3.3,1.1c0.4,0,2.8,0.4,2.8,1.3c0,0.3-0.2,0.6-0.7,0.6c-0.1,0-0.3,0-0.5-0.1
		c-1.6-0.4-3.4-0.5-5.1-0.4c-0.7,0-1.3,0.1-2,0.2c0,0.9,0,1.7,0,2.4c0,0.9,0.1,1.6,0.2,2.2c0.5,0.5,0.9,1.3,1,2.6
		c0.2,4.8-4.9,8.3-6.3,8.4c-0.1,0-0.2,0-0.2-0.1c0-0.1,0.2-0.3,0.6-0.5c1.2-0.6,4.1-3.3,4.5-6.8c-0.4,0.7-1,1.2-1.8,1.3
		c-0.5,0-0.9-0.2-1.1-0.5c-0.9-1.4-1.2-1.8-1.2-2.9c-0.1-1.6,1-2.3,2.1-2.4c0.4,0,0.9,0.1,1.3,0.2C11.1,9,11,7.7,11,6.2
		C8.6,6.6,6.3,7.3,4.5,8.2c-0.4,0.2-1,0.4-1.6,0.4C1.3,8.6,0.1,7.7,0.1,6.8c0-0.2,0.1-0.3,0.2-0.3c0.1,0,0.3,0.1,0.5,0.3
		C0.9,7,1.3,7.1,2.2,7.1C2.6,7.1,3,7,3.5,7c2.8-0.6,5-1.1,7.5-1.5L10.8,3z M11.4,12.1c0-0.2,0-0.3,0-0.5c0-0.1,0-0.2-0.1-0.2
		c-0.4-0.6-1-1.1-1.8-1.1c-0.6,0-1.2,0.5-1.1,1.4c0.1,1.4,1,2.5,1.9,2.4C10.4,14.2,11.5,14.2,11.4,12.1z M17.5,3.3
		c-0.7-0.8-1.6-1.3-2.3-1.6c-0.2-0.1-0.4-0.2-0.4-0.2c0,0,0.1-0.1,0.6-0.1c2-0.1,3.3,0.7,3.4,1.6c0,0.4-0.2,0.7-0.6,0.7
		C18,3.6,17.7,3.5,17.5,3.3z M17.3,0.2c0-0.1,0.6-0.1,0.7-0.1c2.3-0.1,3.3,0.8,3.3,1.5c0,0.4-0.2,0.7-0.6,0.7
		c-0.2,0-0.4-0.1-0.6-0.3c-0.7-0.7-1.7-1.2-2.4-1.5C17.5,0.3,17.3,0.2,17.3,0.2z"/>
	<path d="M20.2,31.6c0.1,2.4-2.8,5.9-9.4,6.2c-0.6,0-0.9,0-0.9-0.1c0-0.2,0.4-0.3,0.9-0.4c8.2-1.7,8.2-5.4,8.2-5.8
		c0-1-1-2.5-3.3-2.4c-1.6,0.1-3.6,1-5.3,2.7c-0.7,0.7-1.5,1.1-2.2,1.1c-0.8,0-1.5-0.6-1.5-0.9c0-0.1,0.1-0.2,0.5-0.3
		c1.1-0.1,2.4-1,3.4-1.7c1.5-1,3.3-1.8,5-1.9C17.6,28,20.1,29.3,20.2,31.6z"/>
	<path d="M14.3,57c-2.1,0.1-5.4,2.3-5.3,4.6c0.1,1.2,1,3,4.2,2.8c1.1-0.1,2.4-0.3,3.4-0.9c0.2-0.1,0.5-0.2,0.7-0.2
		c0.5,0,0.9,0.3,0.9,0.7c0,1-2.3,1.7-4.3,1.8c-4.4,0.2-5.7-2.6-5.8-3.9c-0.1-2,1.6-4.2,4.3-5.6c-1.4-0.5-1.8-1.9-1.8-3.4
		c-0.1-1.3,0.2-2.8,0.2-3.8c0-0.6,0.1-1.2,0.1-1.6c0-0.9-0.4-1.4-1.6-1.6C9.1,46.1,9,46,9,45.9c0-0.2,0.4-0.6,0.9-0.6
		c1,0,2.3,1.1,2.4,2.2c0,0.5-0.1,0.9-0.2,1.4c-0.2,1.1-0.6,2.9-0.5,4.3c0.1,1.5,0.7,2.4,2.2,2.6c1.1-0.5,1.4-0.5,1.8-0.5
		c0.8,0,1,0.3,1.1,0.6c0,0.5-0.6,1.1-1.8,1.2c-0.1,0-0.2,0-0.3,0L14.3,57z"/>
	<path d="M11.1,86.8c0,0.2-0.2,0.4-0.7,0.4c-0.4,0-0.4,0.1-1.7,1.5c0.8,0.1,1,0.3,1,0.4c0,0.1-0.2,0.3-0.5,0.4
		c-0.6,0.3-0.7,0.3-0.7,1.3c0,1.2,0.1,2.8,0.1,4.4c0.1,2.1,0.2,4.2,0.3,5.8l0,0c0,0.6-0.5,0.9-0.9,1c-0.3,0-0.5-0.2-0.6-0.7l0-0.2
		c0.1-2.5,0.1-7.2,0-9.2l-0.1-2c-3.4,3.5-5.2,4.2-5.4,4.2c0,0-0.1,0-0.1,0c0-0.1,0.1-0.2,0.3-0.3c2.8-2.1,6.5-6.9,6.9-8.2
		c0-0.1,0-0.1,0-0.1C9.5,85.4,11.1,86.4,11.1,86.8z M10.6,82.1c0,0.1-0.1,0.3-0.5,0.3l-0.2,0c-0.2,0-0.2,0.1-0.5,0.3
		c-3.1,2.8-6.3,4.7-6.7,4.7c0,0-0.1,0-0.1,0c0,0,0.1-0.2,0.2-0.3c2.7-1.9,5.7-4.8,6.1-6.5c0-0.1,0-0.1,0.1-0.1c0,0,0,0,0.1,0
		c0.1,0,1,0.8,1.5,1.4C10.5,82,10.6,82,10.6,82.1z M24.7,87.7c0,0.1-0.1,0.3-0.5,0.3l-4.3,0.2c0.2,0,0.3,0.1,0.3,0.2
		c0,0.1-0.1,0.2-0.2,0.2c-0.5,0.3-0.4,0.2-0.5,1.1c0,1.2,0,2.3,0,3.3c0.1,1.2,0.1,2.1,0.2,2.8c0.1,0.8,0.2,2.1,0.2,2.7
		c0.1,2.7-2.6,2.9-2.7,2.9c-0.2,0-0.3-0.1-0.5-0.2c-0.5-0.4-3.3-1.4-3.3-1.6c0,0,0,0,0.1,0c0.1,0,0.2,0,0.4,0
		c1.2,0.2,2.2,0.3,2.9,0.2c1.2-0.1,1.8-0.4,1.8-1.3c0-0.7,0-2.7-0.1-4.7c-0.1-2.4-0.3-5-0.4-5.6l-1,0c-1.4,0.1-3.2,0.2-5.3,0.5l0,0
		c-0.4,0-1.1-0.9-1.1-1.2c2.5,0.2,5.1,0.1,6.5,0.1l3.6-0.2c0.1,0,0.3-0.1,0.4-0.2c0-0.1,0.9-1.4,1.3-1.4c0,0,0.1,0,0.2,0
		C23.3,86.2,24.7,87.3,24.7,87.7z M22.9,82.1c0,0.2-0.1,0.3-0.5,0.3L17,82.7c-1.4,0.1-1.9,0.1-4.1,0.4l0,0c-0.4,0-1.1-0.9-1.1-1.2
		c2.5,0.2,3.8,0.2,5.3,0.1l1.8-0.1c0.2,0,0.3-0.1,0.4-0.2c0-0.1,1-1.4,1.3-1.4c0,0,0.1,0,0.2,0C21.5,80.6,22.8,81.7,22.9,82.1z"/>
	<path d="M18.9,121.6c0.5,0,0.7-0.3,0.7-0.6c0-0.2-0.1-0.4-0.2-0.7c-0.5-0.9-1-1.9-1.5-2.9c-0.2,0.1-2.4,0.9-4.6,1
		c-3.2,0.1-3.6-2.4-3.6-2.4c0-0.1,0-0.2,0.1-0.2c0.1,0,0.2,0.1,0.4,0.2c1.2,1,2.4,1.3,3.7,1.3c1.2-0.1,2.2-0.3,3.6-0.8
		c-0.4-0.9-0.9-1.9-1.4-2.8c-0.7,0.2-1.1,0.3-1.6,0.3c-3.1,0.1-3.9-2.1-3.9-2.1c0,0,0-0.1,0.1-0.1c0.1,0,0.4,0.1,0.5,0.2
		c0.8,0.4,2,1.2,3.3,1.1c0.2,0,0.7-0.1,1.1-0.3c-0.8-1.4-1.8-2.7-3.1-3.8c-0.9-0.9-1.4-0.7-1.6-0.8c-0.1,0-0.1-0.1-0.1-0.2
		c0-0.4,0.9-0.6,1.1-0.7c1.3-0.1,2,0.7,4.3,5.2c0.2-0.1,0.5-0.2,0.6-0.4c0.5-0.4,0.9-0.6,1.2-0.6c0.3,0,0.4,0.3,0.4,0.5
		c0,0.6-1.3,1.2-1.8,1.4c0.5,1,1,1.9,1.5,2.8c0.5-0.2,1-0.4,1.2-0.7c0,0,0.1-0.1,0.1-0.3c0-0.2-0.2-0.5-0.8-1
		c-0.3-0.2-0.5-0.4-0.5-0.4c0,0,0,0,0,0c0.1,0,0.4,0.1,0.9,0.3c0.9,0.4,1.6,0.5,1.6,0.5c0.4,0,0.7,0.2,0.7,0.4c0,0.6-1.3,1.4-2.8,2
		c0.5,1,1.1,2,1.8,3c0.3,0.5,0.5,1,0.5,1.5c0.1,1.2-0.7,1.8-1.3,1.8c-0.3,0-0.4-0.1-0.6-0.4c-0.4-0.4-2.6-0.9-4.4-0.8
		c-2.7,0.1-3.2,1.8-3.2,2.3c0,0.7,1.1,2.3,3.7,2.2c0.8,0,1.5-0.2,1.9-0.3c0.1,0,0.2-0.1,0.3-0.1c0.5,0,0.9,0.3,0.9,0.6
		c0,0.4-0.4,0.9-2.7,1c-3.4,0.2-5-1.8-5.1-3.3c0-0.3-0.1-2.9,4.7-3.1C16.7,121.5,18.3,121.6,18.9,121.6L18.9,121.6z"/>
	<path d="M13.7,139.6c-1.1,4-2.4,8-3.1,12c-0.1,0.7-0.5,1.7-1.2,1.7c-0.7,0-0.7-0.8-0.7-0.9c0-0.4,0.1-0.8,0.4-1.3
		c0.5-0.9,3.1-8.6,3.8-11.6c-1.1,0.3-1.6,0.4-1.8,0.4c-2.6,0.1-3.4-1.6-3.4-2c0-0.1,0-0.1,0.1-0.1c0.1,0,0.4,0.1,0.5,0.2
		c0.4,0.3,1.5,0.8,2.8,0.7c0.7,0,1.6-0.2,2.1-0.4c0.1-0.6,0.1-1.1,0.1-1.6c0-0.9-0.3-1.6-0.9-1.7c-0.4,0-0.7-0.1-0.7-0.3
		c0-0.2,0.6-0.6,1-0.6c0.5,0,1.5,0.3,1.7,1.8c0.8,0.2,1.4,0.3,1.8,0.4c0.4,0.1,0.5,0.3,0.6,0.6c0,1.1-2.3,2.1-2.8,2.3L13.7,139.6z
		 M14.2,137.9c0.7-0.4,1.3-0.8,1.3-1.1c0-0.2-0.8-0.6-1.1-0.7C14.3,136.6,14.3,137.2,14.2,137.9z M23.5,151c1,0,1.5,0.3,1.6,0.6
		c0,0.2-0.3,0.8-2.1,0.9c-3,0.1-6-1.2-6.1-3c0-1,0.6-1.5,0.7-1.5c0.1,0,0.1,0,0.1,0.1c0,0.1,0,0.3-0.1,0.4c-0.1,0.2-0.1,0.3-0.1,0.5
		c0.1,1.1,1.8,2.1,4.3,2.1c0.4,0,0.9-0.1,1.6-0.2L23.5,151z M21.2,142.4c-0.1,0.1-0.2,0.2-0.2,0.2c0,0-0.1,0-0.1-0.1
		c0-0.1,0-0.2,0.1-0.2c0.6-0.8,0.8-0.9,1.2-1.5c0.2-0.2,0.5-0.6,0.5-0.9c0-0.5-1-0.8-2.1-0.8c-0.2,0-0.4,0-0.5,0
		c-0.1,0-0.2,0.1-0.3,0.1c-0.2,0-0.3,0-0.3-0.1c0,0,0.4-0.6,1.9-0.7c2.1-0.1,4,1,4.1,1.5c0,0.2-0.3,0.4-0.5,0.5
		C23.7,140.7,22.7,141,21.2,142.4z"/>
	<path d="M10.7,168c-0.6,0-1.9-0.2-2-1.8c0-0.5,0-0.7,0.1-0.7c0.1,0,0.2,0.1,0.4,0.4c0.4,0.5,1,0.6,1.6,0.6c1.2-0.1,2.3-0.5,3.4-0.9
		c0.3-1,0.4-2.2,0.4-2.9c0-0.8-0.3-1.3-0.9-1.4c-0.3,0-0.5-0.2-0.5-0.4c0-0.3,0.8-0.8,1.4-0.8c1,0,1.3,1.1,1.3,1.5
		c0,0.7-0.3,2.3-0.6,3.3c0,0.1-0.1,0.2-0.1,0.3c0.6-0.2,1.1-0.4,1.7-0.5c2.4-0.1,2.6,2.9,2.6,4c0.2,5.2-2.6,8-5,8.1
		c-0.4,0-0.8,0-1.1-0.1c-0.9-0.3-0.7-1.2-0.9-1.9c-0.1-0.4-0.2-0.6-0.2-0.8c0-0.1,0-0.2,0.1-0.2c0.1,0,0.3,0.2,0.7,0.6
		c0.5,0.6,1.1,1,1.8,1c2.2-0.1,3.7-3.7,3.5-7.1c-0.1-1.9-0.7-3-1.7-2.9c-0.5,0-0.7,0.1-1.9,0.9c-1,2.7-2.8,6.8-4.3,9.8
		c-0.3,0.6-0.9,1.3-1.4,1.3c-0.2,0-0.4-0.1-0.4-0.4c0-0.4,0.3-1,0.6-1.5c0.9-1.5,3.5-5.6,4.7-8.8C11.8,167.8,11.1,168,10.7,168z
		 M26.1,171.1c-0.2-0.1-0.5-0.1-1,0c-1.8,0.1-2.1,0.1-2.2,0c0-0.1,0.2-0.2,0.6-0.3c1.1-0.3,2.9-0.5,2.9-2.1c-0.1-2-2.2-2.6-3.6-3
		c-0.6-0.2-0.8-0.3-0.8-0.3c0-0.1,0.1-0.1,0.3-0.1c3.1-0.1,5.4,1.8,5.5,3.7c0.1,1.4-0.8,2.3-1.4,2.3
		C26.4,171.2,26.2,171.2,26.1,171.1z"/>
	<path d="M27.2,187c0.1,2.4-2.8,5.9-9.4,6.2c-0.6,0-0.9,0-0.9-0.1c0-0.1,0.4-0.3,0.9-0.4c8.2-1.7,8.2-5.4,8.2-5.8c0-1-1-2.5-3.3-2.4
		c-1.6,0.1-3.6,1-5.3,2.7c-0.7,0.7-1.5,1.1-2.2,1.1c-0.8,0-1.5-0.6-1.5-0.9c0-0.1,0.1-0.2,0.5-0.3c1.1-0.1,2.4-1,3.4-1.7
		c1.5-1,3.3-1.8,5-1.9C24.6,183.4,27.1,184.8,27.2,187z"/>
	<path d="M16.8,206.9c-1.1,4-2.4,8-3.1,12c-0.1,0.7-0.5,1.7-1.2,1.7c-0.7,0-0.7-0.8-0.7-0.9c0-0.4,0.1-0.8,0.4-1.3
		c0.5-0.9,3.1-8.6,3.8-11.6c-1.1,0.3-1.6,0.4-1.8,0.4c-2.6,0.1-3.4-1.6-3.4-2c0-0.1,0-0.1,0.1-0.1c0.1,0,0.4,0.1,0.5,0.2
		c0.4,0.3,1.5,0.8,2.8,0.7c0.7,0,1.6-0.2,2.1-0.4c0.1-0.6,0.1-1.1,0.1-1.6c0-0.9-0.3-1.6-0.9-1.7c-0.4,0-0.7-0.1-0.7-0.3
		c0-0.2,0.6-0.6,1-0.6c0.5,0,1.5,0.3,1.7,1.8c0.8,0.2,1.4,0.3,1.8,0.4c0.4,0.1,0.5,0.3,0.6,0.6c0,1.1-2.3,2.1-2.8,2.3L16.8,206.9z
		 M17.2,205.2c0.7-0.4,1.3-0.8,1.3-1.1c0-0.3-0.8-0.6-1.1-0.7C17.4,203.9,17.3,204.6,17.2,205.2z M26.5,218.3c1,0,1.5,0.3,1.6,0.6
		c0,0.2-0.3,0.8-2.1,0.9c-3,0.1-6-1.2-6.1-3c0-1,0.6-1.5,0.7-1.5c0.1,0,0.1,0,0.1,0.1c0,0.1,0,0.3-0.1,0.4c-0.1,0.2-0.1,0.3-0.1,0.5
		c0.1,1.1,1.8,2.1,4.3,2.1c0.4,0,0.9-0.1,1.6-0.2L26.5,218.3z M24.3,209.7c-0.1,0.1-0.2,0.2-0.2,0.2c0,0-0.1,0-0.1-0.1
		c0,0,0-0.2,0.1-0.2c0.6-0.8,0.8-0.9,1.2-1.5c0.2-0.2,0.5-0.6,0.5-0.9c0-0.5-1-0.8-2.1-0.8c-0.2,0-0.4,0-0.5,0
		c-0.1,0-0.2,0.1-0.3,0.1c-0.2,0-0.3,0-0.3-0.1c0,0,0.4-0.6,1.9-0.7c2.1-0.1,4,1,4.1,1.5c0,0.2-0.3,0.4-0.5,0.5
		C26.7,208,25.8,208.3,24.3,209.7z"/>
	<path d="M12.8,256.5c0.1-2.5,0.1-7,0-9l-0.1-2.2c-2.6,3-3.9,3.3-4,3.3s0,0-0.1,0c0,0,0.1-0.2,0.3-0.3c1.7-1.4,5.3-5.9,5.6-7.5
		c0-0.1,0-0.1,0-0.1c0.1,0,1.5,0.7,1.6,1.1c0,0.2-0.1,0.4-0.6,0.4c-0.3,0-0.3,0.1-0.6,0.4l-1.4,1.7c0.9,0.1,1.2,0.2,1.2,0.4
		c0,0.1-0.1,0.3-0.4,0.4c-0.6,0.3-0.6,0.1-0.6,1.1c0,1.5,0.1,3.4,0.1,5.4c0.1,1.7,0.2,3.5,0.3,4.8c0,0.4-0.4,1-0.9,1
		c-0.3,0-0.6-0.2-0.6-0.7L12.8,256.5z M15.1,237.6c-0.2,0-0.2,0.1-0.4,0.3c-2,2.1-4.9,4.3-5.6,4.3c0,0,0,0-0.1,0
		c0-0.1,0.1-0.2,0.2-0.3c0.6-0.5,4.1-3.4,4.8-5.8c0-0.1,0-0.1,0.1-0.1c0,0,1.5,0.7,1.5,1.2c0,0.1-0.1,0.4-0.4,0.4L15.1,237.6z
		 M21,248.6l0.2,3.5c1.7-0.5,3.7-1,5-1.5c0.1,0,0.2-0.1,0.2-0.1s0.1,0,0.1,0.1c0,0.5-6.2,2.7-9,3.7c-0.2,0.1-0.3,0.3-0.5,0.3
		c-0.4,0-1.3-1.3-1.3-1.5c0-0.1,0-0.1,0-0.1c0.4,0,0.8,0,1.1,0c0.3,0,0.9-0.1,3.2-0.7l-0.2-3.8c-0.8,0.1-1.8,0.1-2.9,0.3l0,0
		c-0.3,0-1-0.9-1-1.1c1.3,0.1,2.8,0.2,3.9,0.1l0-0.2c-0.1-1.4-0.2-2.1-0.4-2.9c0-0.1,0-0.1,0-0.2c0-0.1,0-0.1,0-0.1
		c0.1,0,2.4,0.2,2.4,0.7c0,0.1-0.1,0.3-0.4,0.4c-0.4,0.2-0.6,0.1-0.6,1c0,0.3,0,0.8,0,1.3l1.4-0.1c0,0,0.1-0.1,0.2-0.2
		c0.2-0.3,0.8-0.9,0.9-0.9c0,0,0.1,0,0.1,0c1.1,0.6,1.5,1,1.5,1.3c0,0.1-0.1,0.3-0.3,0.3L21,248.6z M20.3,244
		c-0.8,0-2.3,0.1-3.8,0.4l0,0c-0.3,0-1-0.9-1-1.1c1.4,0.2,3.1,0.2,4.2,0.1l-0.2-3.4c-0.8,0.1-1.7,0.2-2.6,0.3l0,0
		c-0.3,0-1-0.8-1-1.1c1.2,0.1,2.6,0.1,3.7,0.1l0-0.9c0-1-0.1-1.9-0.4-3.1c0-0.1,0-0.1,0-0.2c0-0.1,0-0.1,0.1-0.1
		c0,0,2.3,0.2,2.4,0.8c0,0.1-0.1,0.3-0.4,0.4c-0.4,0.2-0.6,0.2-0.6,1.1c0,0.5,0,1.2,0,2l1.2-0.1c0.1,0,0.1-0.1,0.2-0.2
		c0.2-0.3,0.8-0.9,1-0.9c0.1,0,0.1,0,0.1,0c1,0.4,1.5,1,1.5,1.3c0,0.2-0.1,0.3-0.3,0.3l-3.6,0.2c0.1,1.1,0.1,2.4,0.1,3.4l1.5-0.1
		c0.1,0,0.1-0.1,0.2-0.2c0.2-0.3,0.8-0.9,1-0.9c0.1,0,0.1,0,0.1,0c0.9,0.4,1.5,1,1.5,1.3c0,0.1-0.1,0.3-0.3,0.3L20.3,244z
		 M29.4,243.4C29.5,243.5,29.5,243.5,29.4,243.4c0.1,0.2,0,0.3-0.2,0.4c-0.5,0.3-0.5,0.2-0.5,1.1c0,1.2,0.1,2.4,0.1,3.3
		c0.1,1.2,0.1,2.2,0.2,2.9c0.1,0.7,0.2,2.1,0.2,2.6c0,1.8-1.6,2.7-2.4,2.7c-0.1,0-0.2-0.1-0.3-0.2c-0.3-0.4-2.3-1.4-2.3-1.6
		c0,0,0,0,0.1,0c0,0,0.1,0,0.3,0c0.9,0.2,1.5,0.3,2.1,0.3c0.9,0,1.4-0.4,1.4-1.3c0-0.6,0-1.8-0.1-3.2c-0.2-3.4-0.4-6.4-0.5-6.9
		c-0.3,0-0.8,0.1-1.5,0.2l0,0c-0.4,0-1.2-0.9-1.2-1.2c1.4,0.1,2.7,0.3,4.3,0.2l0.1,0c0.1,0,0.2-0.1,0.3-0.2c0.2-0.3,0.7-1.3,0.9-1.3
		c0,0,0.1,0,0.1,0c0.5,0.2,1.6,1.2,1.6,1.7c0,0.1-0.1,0.3-0.4,0.3L29.4,243.4z M27.9,237.9c-0.8,0-1.1,0.1-2.2,0.3l-0.1,0
		c-0.4,0-1.1-0.9-1.1-1.2c1.7,0.3,2.5,0.3,3,0.2l0.6,0c0.1,0,0.2-0.1,0.3-0.2c0.2-0.3,0.7-1.3,0.9-1.3c0,0,0.1,0,0.1,0
		c0.5,0.2,1.6,1.2,1.6,1.7c0,0.1-0.1,0.3-0.4,0.3L27.9,237.9z"/>
	<path class="st0" d="M16.9,319.1c0,0.5-0.3,0.8-0.7,0.8c-0.2,0-0.5-0.1-0.7-0.5c-0.4-0.6-1.4-1.3-2.2-1.7c-0.2-0.1-0.3-0.2-0.3-0.2
		c0-0.1,0.8-0.1,0.8-0.1C15.2,317.6,16.9,318,16.9,319.1z M35.6,320.9c0,0.2-0.1,0.3-0.5,0.3l-7,0c-1.4,0-5.8,0-8.1,0.3l0,0
		c-0.5,0-1-0.9-1.1-1.3c-1.7,5-2.1,7.5-2.1,8.8c0,0.6,0.1,1.1,0.2,1.5c0.1,0.4,0.2,0.8,0.2,1.1c0,0.8-0.4,1.3-0.9,1.3
		c-0.5,0-0.9-0.5-0.9-1.6l0-0.3c0.1-0.6,0.2-1.3,0.2-2c0-1.1-0.4-2.1-2.1-2.5c-0.4-0.1-0.6-0.2-0.6-0.3c0-0.1,0.2-0.1,0.4-0.1l0.4,0
		c0.9,0,1.7-0.1,2.1-1.2c2.4-6.6,5.3-12.7,5.7-12.7c0,0,0,0,0,0.1c0,0.1-0.1,0.3-0.1,0.4c-0.4,1-1.7,4.3-2.8,7.4
		c1,0.1,2.3,0.2,3.7,0.3l0-3.5c0-1-0.2-1.9-0.3-2.4c0,0,0-0.1,0-0.1c0,0,0-0.1,0.2,0c0.4,0,2.1,0.2,2.1,0.7c0,0.2-0.3,0.5-0.7,0.6
		c-0.2,0.1-0.4,0.3-0.4,4.8c1.1,0.1,2.3,0.1,3.1,0.1l0-6.6c0-0.9-0.2-1.8-0.3-2.3c0-0.1,0-0.1,0-0.1c0-0.1,0.1-0.1,0.3-0.1
		c0.1,0,2.1,0.2,2.1,0.8c0,0.2-0.3,0.4-0.7,0.6c-0.3,0.1-0.3,0.1-0.3,1l0,1c0,0.5,0,0.9,0,1.4l2,0c0.1,0,0.3-0.1,0.4-0.2
		c0.2-0.4,0.8-1.2,1.1-1.2c0.3,0,2.1,1.1,2.1,1.8c0,0.2-0.1,0.3-0.5,0.3l-5.1,0c0,1.4,0,2.8,0,3.7l4.1,0c0.1,0,0.3-0.1,0.4-0.2
		c0.2-0.3,0.9-1.3,1.2-1.3C34,319,35.6,320.4,35.6,320.9z M18.9,313.9c0,0.5-0.4,0.9-0.8,0.9c-0.3,0-0.6-0.2-0.8-0.7
		c-0.4-0.7-1.2-1.4-2-2c-0.2-0.2-0.3-0.2-0.3-0.3c0,0,0,0,0.3,0C16.9,311.9,18.9,312.6,18.9,313.9z M21,332.2
		c-0.2,0.1-0.3,0.4-0.5,0.4c-0.3,0-1.5-1.5-1.5-1.6c0,0,0.1,0,0.1-0.1c2.5-0.2,5.5-2.1,7-3.1c0.2-0.1,0.3-0.1,0.3-0.1c0,0,0,0,0,0.1
		C26.6,328.1,22.5,331.2,21,332.2z M25.2,325.8c0,0.4-0.3,0.8-0.6,0.8c-0.3,0-0.6-0.2-1-0.8c-0.7-1.1-1.9-1.9-3-2.5
		c0,0-0.1-0.1-0.1-0.1c0-0.1,0.1-0.1,0.2-0.1C22.3,323.3,25.2,324.2,25.2,325.8z M33.4,324.4c0,0.2-0.2,0.3-0.5,0.3
		c-0.1,0-0.1,0-0.2,0c-0.2,0-0.3-0.1-0.4-0.1c-0.1,0-0.1,0-0.2,0.1c-0.7,0.4-4.6,2.5-4.7,2.5c0,0-0.1-0.1-0.1-0.2c0,0,0-0.1,0.1-0.1
		c3.4-2.7,4-3.6,4.2-4.3c0,0,0-0.1,0.1-0.1C31.8,322.5,33.4,323.9,33.4,324.4z M34.1,331.6c0,0.5-0.3,0.8-0.7,0.8
		c-0.3,0-0.7-0.2-1.1-0.7c-1.3-1.5-3.2-2.3-4.6-3c-0.1,0-0.1-0.1-0.1-0.1c0,0,0.1,0,0.2,0C28,328.6,34.1,329.4,34.1,331.6z"/>
	<path class="st0" d="M37.9,349.9c0,0.1-1.5,0.8-2.1,1.6c-0.1,0.1-0.2,0.2-0.3,0.2c-0.8,0.1-6.3-2-10.6-6.3l-0.1,0.1
		c-1.3,2.1-2.8,4.1-4.3,5.6c0.3,0.1,1.2,0.3,1.7,0.5l0.1,0.1l6.5-0.9c0.1,0,0.3-0.1,0.4-0.2c0.2-0.4,0.4-0.6,0.5-0.6
		c0.2,0,2,1.1,2.1,1.5c0,0.2-0.1,0.3-0.3,0.4c-0.5,0.3-0.5,0.3-0.3,2.1c0.2,1.3,0.5,2.9,0.7,4.2l0,0c0.1,0.4-0.3,0.7-0.7,0.8
		c-0.3,0-0.6-0.1-0.6-0.5l-0.1-0.8l-8,1.1l0.1,1c0.1,0.4-0.3,0.7-0.7,0.7c-0.2,0-0.5-0.1-0.6-0.4l0-0.1c-0.1-2.3-0.5-4.8-0.6-5.9
		c0-0.3-0.3-1.9-0.6-2.7c-2.9,2.9-5.3,3.8-5.7,3.8c0,0-0.1,0-0.1,0c0,0,0.1-0.1,0.3-0.3c2.9-1.9,6.2-5,8.8-10
		c0.3-0.5,0.4-1.1,0.5-1.5c0-0.1,0-0.2,0.1-0.2c0,0,0.1,0,0.1,0c0,0,1.5,0.6,1.8,1c0.1,0,0.1,0.1,0.1,0.2c0,0.2-0.1,0.4-0.7,0.5
		c-0.1,0-0.2,0.1-0.3,0.1c1.9,2,8.6,5.4,12.5,4.9C37.8,349.9,37.9,349.9,37.9,349.9z M22.1,340.7c0,0.2-0.1,0.4-0.5,0.4l-0.1,0
		c-0.1,0-0.2,0-0.2,0c-0.2,0-0.2,0.1-0.5,0.4c-3.1,3.8-5.6,5.1-6,5.2c-0.1,0-0.1,0-0.1,0c0-0.1,0.1-0.2,0.3-0.4c1.6-1.2,5-5.3,5-6.8
		c0-0.1,0-0.2,0-0.2C20.1,339.4,22,340.3,22.1,340.7z M30.1,353.7c-0.3-2.2-0.3-2.4-0.6-2.3l-7.1,1l-0.1,0.1
		c-0.5,0.4-0.5,0.2-0.4,1.2c0.1,0.5,0.1,1.2,0.2,2c0.1,0.8,0.3,1.7,0.4,2.5l8-1.1C30.4,355.8,30.2,354.7,30.1,353.7z M33,342.3
		c0.1,0.5-0.2,0.9-0.5,1c-0.3,0-0.7-0.2-1.1-0.7c-0.9-1.2-3.1-2.6-4.9-3.6c-0.1,0-0.1-0.1-0.1-0.1c0,0,0,0,0,0
		C26.7,338.9,32.8,340.2,33,342.3z"/>
	<line class="st1" x1="22.8" y1="277.8" x2="23.8" y2="299.5"/>
	<line class="st1" x1="27.1" y1="374.2" x2="28.1" y2="395.9"/>
</g>
</svg>
